<?xml version="1.0" encoding="UTF-8"?>
<svg width="248px" height="212px" viewBox="0 0 248 212" version="1.1" xmlns="http://www.w3.org/2000/svg" xmlns:xlink="http://www.w3.org/1999/xlink">
    <!-- Generator: Sketch 51.3 (57544) - http://www.bohemiancoding.com/sketch -->
    <title>Untitled</title>
    <desc>Created with Sketch.</desc>
    <defs></defs>
    <g id="Page-1" stroke="none" stroke-width="1" fill="none" fill-rule="evenodd">
        <g id="if_Chat_comments_talk_discussion_speech_bubbles_1886537" fill-rule="nonzero">
            <g id="Group" opacity="0.464118304" transform="translate(8.000000, 8.000000)" fill="#000000">
                <path d="M239.99942,58.3237305 C239.99942,26.2437287 204.181824,0.2368012 160,0.2368012 C115.817017,0.2368012 80,26.2437287 80,58.3237305 C80,59.3536072 80.165329,60.3525391 80.2378235,61.3706665 C123.68634,61.4559936 159.98288,84.9546661 168.227692,116.038391 C172.182343,115.74292 176.078888,115.308258 179.84314,114.611206 L218.510345,132.638397 L215.677277,100.035187 C230.676758,89.4768066 239.99942,74.6906738 239.99942,58.3237305 Z" id="Shape" opacity="0.3"></path>
                <path d="M80,71.3621368 C35.8170166,71.3621368 0.0004883,97.3674621 0.0004883,129.449066 C0.0004883,145.81601 9.3220825,160.601074 24.3220825,171.160004 L21.4884949,203.763733 L60.1567536,185.734924 C66.5013276,186.911987 73.1498261,187.537079 80.0000001,187.537079 C124.182343,187.537079 160,161.529602 160,129.449066 C160,97.3674622 124.182343,71.3621368 80,71.3621368 Z M113.770081,151.980255 L46.2314148,151.980255 L46.2314148,141.980255 L113.770081,141.980255 L113.770081,151.980255 Z M127.520477,123.66507 L32.4767609,123.66507 L32.4767609,113.66507 L127.520477,113.66507 L127.520477,123.66507 Z" id="Shape" opacity="0.3"></path>
            </g>
            <g id="Group">
                <path d="M239.99942,58.3237305 C239.99942,26.2437287 204.181824,0.2368012 160,0.2368012 C115.817017,0.2368012 80,26.2437287 80,58.3237305 C80,59.3536072 80.165329,60.3525391 80.2378235,61.3706665 C123.68634,61.4559936 159.98288,84.9546661 168.227692,116.038391 C172.182343,115.74292 176.078888,115.308258 179.84314,114.611206 L218.510345,132.638397 L215.677277,100.035202 C230.676758,89.4768066 239.99942,74.6906738 239.99942,58.3237305 Z" id="Shape" fill="#21A3D7"></path>
                <path d="M80,71.3621368 C35.8170166,71.3621368 0.0004883,97.3674621 0.0004883,129.449066 C0.0004883,145.81601 9.3220825,160.601074 24.3220825,171.160004 L21.4884949,203.763733 L60.1567536,185.734924 C66.5013276,186.911987 73.1498261,187.537079 80.0000001,187.537079 C124.182343,187.537079 160,161.529602 160,129.449066 C160,97.3674622 124.182343,71.3621368 80,71.3621368 Z M113.770081,151.980255 L46.2314148,151.980255 L46.2314148,141.980255 L113.770081,141.980255 L113.770081,151.980255 Z M127.520477,123.66507 L32.4767609,123.66507 L32.4767609,113.66507 L127.520477,113.66507 L127.520477,123.66507 Z" id="Shape" fill="#3FB49C"></path>
            </g>
        </g>
    </g>
</svg>