<?xml version="1.0" encoding="UTF-8"?>
<svg width="66px" height="76px" viewBox="0 0 66 76" version="1.1" xmlns="http://www.w3.org/2000/svg" xmlns:xlink="http://www.w3.org/1999/xlink">
    <!-- Generator: Sketch 51.3 (57544) - http://www.bohemiancoding.com/sketch -->
    <title>Untitled</title>
    <desc>Created with Sketch.</desc>
    <defs></defs>
    <g id="Page-1" stroke="none" stroke-width="1" fill="none" fill-rule="evenodd">
        <g id="book" fill-rule="nonzero">
            <path d="M5.266,0.995 L60.735,1.005 C63.099,1.005 65.015,2.921 65.015,5.285 L64.935,70.708 C64.935,73.072 63.019,74.988 60.655,74.988 L5.266,74.988 C2.903,74.988 0.986,73.072 0.986,70.708 L0.986,5.243 C0.985,2.88 2.902,0.995 5.266,0.995 Z" id="Shape" fill="#E27C3F"></path>
            <path d="M5.266,10.964 L60.735,11.005 C63.099,11.005 65.015,12.922 65.015,15.285 L64.935,70.708 C64.935,73.072 63.019,74.988 60.655,74.988 L5.266,74.988 C2.903,74.988 0.986,73.072 0.986,70.708 L0.986,15.243 C0.985,12.879 2.902,10.964 5.266,10.964 Z" id="Shape" fill="#FFA068"></path>
            <polygon id="Shape" fill="#CD5929" points="19 31 53 31 53 41 19 41"></polygon>
            <path d="M19,45 L19,48 L53,48 L53,45 L19,45 Z M19,53 L43,53 L43,50 L19,50 L19,53 Z" id="Shape" fill="#E76B38"></path>
            <path d="M4,1 L5,1 C6.656,1 6.955,0.977 7,1 L7,75 C6.953,75.028 6.656,75 5,75 L4,75 C2.344,75 1,73.657 1,72 L1,4 C1,2.344 2.344,1 4,1 Z" id="Shape" fill="#D5753A"></path>
            <polygon id="Shape" fill="#FFB387" points="7 11 8 11 8 75 7 75"></polygon>
            <path d="M6,4 L59,4 C60.657,4 62,5.344 62,7 L62,8 C62,9.657 61.991,11.023 62,11 L6,11 C4.344,11 4,9.657 4,8 L4,7 C4,5.344 4.344,4 6,4 Z" id="Shape" fill="#FFFFFF"></path>
        </g>
    </g>
</svg>