<?xml version="1.0" encoding="UTF-8"?>
<svg width="66px" height="75px" viewBox="0 0 66 75" version="1.1" xmlns="http://www.w3.org/2000/svg" xmlns:xlink="http://www.w3.org/1999/xlink">
    <!-- Generator: Sketch 51.3 (57544) - http://www.bohemiancoding.com/sketch -->
    <title>Untitled 2</title>
    <desc>Created with Sketch.</desc>
    <defs></defs>
    <g id="Page-1" stroke="none" stroke-width="1" fill="none" fill-rule="evenodd">
        <g id="camera" fill-rule="nonzero">
            <path d="M47.865,72.288 L47.871,72.285 L47.857,72.258 C47.795,72.101 47.712,71.953 47.615,71.818 L32.74,44.709 L30.016,45.647 L27.291,44.709 L12.417,71.817 C12.318,71.953 12.237,72.1 12.175,72.257 L12.16,72.284 L12.166,72.287 C12.083,72.507 12.032,72.742 12.032,72.99 C12.032,74.099 12.931,74.999 14.041,74.999 C14.881,74.999 15.599,74.482 15.898,73.751 L28.015,51.544 L28.015,71.063 C28.015,72.146 28.911,73.024 30.015,73.024 C31.118,73.024 32.015,72.146 32.015,71.063 L32.015,51.619 L32.033,51.653 L32.033,51.577 L44.133,73.752 C44.434,74.483 45.15,75 45.99,75 C47.099,75 48,74.101 48,72.991 C48,72.743 47.949,72.508 47.865,72.288 Z" id="Shape" fill="#334D5D"></path>
            <path d="M25,44 L35,44 C37.209,44 39,45.791 39,48 C39,50.209 37.209,52 35,52 L25,52 C22.791,52 21,50.209 21,48 C21,45.791 22.791,44 25,44 Z" id="Shape" fill="#2F3A40"></path>
            <path d="M63.857,22 C62.791,22 61.855,22.237 61.287,22.819 L61.289,22.81 L61.26,22.841 L61.246,22.855 L56,28.286 L56,20 C56,18.343 54.656,17 53,17 L3,17 C1.344,17 1.42108547e-14,18.343 1.42108547e-14,20 L1.42108547e-14,46 C1.42108547e-14,47.657 1.344,49 3,49 L53,49 C54.656,49 56,47.657 56,46 L56,37.715 L61.25,43.152 L61.252,43.153 L61.268,43.171 L61.266,43.166 C61.832,43.76 62.781,44 63.857,44 C65.591,44 66,42.594 66,40.857 L66,25.143 C66,23.408 65.592,22 63.857,22 Z" id="Shape" fill="#334D5D"></path>
            <polygon id="Shape" fill="#5F727F" points="0 39 56 39 56 40 0 40"></polygon>
            <path d="M40.5,0 C34.846,0 30.009,3.479 28,8.412 C25.99,3.479 21.154,0 15.5,0 C8.043,0 2,6.044 2,13.5 C2,20.956 8.043,27 15.5,27 C21.154,27 25.99,23.521 28,18.588 C30.009,23.521 34.846,27 40.5,27 C47.955,27 54,20.956 54,13.5 C54,6.044 47.955,0 40.5,0 Z" id="Shape" fill="#FFFCF6"></path>
            <path d="M15.5,3 C9.701,3 5,7.701 5,13.5 C5,19.299 9.701,24 15.5,24 C21.299,24 26,19.299 26,13.5 C26,7.701 21.298,3 15.5,3 Z M40.5,3 C34.701,3 30,7.701 30,13.5 C30,19.299 34.701,24 40.5,24 C46.299,24 51,19.299 51,13.5 C51,7.701 46.299,3 40.5,3 Z" id="Shape" fill="#CCD0D2"></path>
            <path d="M15.5,5 C14.672,5 14,5.671 14,6.5 C14,7.329 14.672,8 15.5,8 C16.328,8 17,7.329 17,6.5 C17,5.672 16.328,5 15.5,5 Z M22.5,12 C21.672,12 21,12.672 21,13.5 C21,14.329 21.672,15 22.5,15 C23.328,15 24,14.329 24,13.5 C24,12.672 23.328,12 22.5,12 Z M15.5,19 C14.672,19 14,19.672 14,20.5 C14,21.329 14.672,22 15.5,22 C16.328,22 17,21.328 17,20.5 C17,19.672 16.328,19 15.5,19 Z M10,13.5 C10,12.672 9.328,12 8.5,12 C7.672,12 7,12.672 7,13.5 C7,14.329 7.672,15 8.5,15 C9.328,15 10,14.329 10,13.5 Z M10.5,7 C9.672,7 9,7.672 9,8.5 C9,9.329 9.672,10 10.5,10 C11.328,10 12,9.329 12,8.5 C12,7.672 11.328,7 10.5,7 Z M20.5,10 C21.328,10 22,9.329 22,8.5 C22,7.672 21.328,7 20.5,7 C19.672,7 19,7.672 19,8.5 C19,9.329 19.671,10 20.5,10 Z M20.5,17 C19.672,17 19,17.672 19,18.5 C19,19.329 19.672,20 20.5,20 C21.328,20 22,19.329 22,18.5 C22,17.672 21.328,17 20.5,17 Z M10.5,17 C9.672,17 9,17.672 9,18.5 C9,19.329 9.672,20 10.5,20 C11.328,20 12,19.329 12,18.5 C12,17.672 11.328,17 10.5,17 Z M40.5,5 C39.672,5 39,5.671 39,6.5 C39,7.329 39.672,8 40.5,8 C41.328,8 42,7.329 42,6.5 C42,5.672 41.328,5 40.5,5 Z M47.5,12 C46.672,12 46,12.672 46,13.5 C46,14.329 46.672,15 47.5,15 C48.328,15 49,14.329 49,13.5 C49,12.672 48.328,12 47.5,12 Z M40.5,19 C39.672,19 39,19.672 39,20.5 C39,21.329 39.672,22 40.5,22 C41.328,22 42,21.328 42,20.5 C42,19.672 41.328,19 40.5,19 Z M35,13.5 C35,12.672 34.328,12 33.5,12 C32.672,12 32,12.672 32,13.5 C32,14.329 32.672,15 33.5,15 C34.328,15 35,14.329 35,13.5 Z M35.5,7 C34.672,7 34,7.672 34,8.5 C34,9.329 34.672,10 35.5,10 C36.328,10 37,9.329 37,8.5 C37,7.672 36.328,7 35.5,7 Z M45.5,10 C46.328,10 47,9.329 47,8.5 C47,7.672 46.328,7 45.5,7 C44.672,7 44,7.672 44,8.5 C44,9.329 44.672,10 45.5,10 Z M45.5,17 C44.672,17 44,17.672 44,18.5 C44,19.329 44.672,20 45.5,20 C46.328,20 47,19.329 47,18.5 C47,17.672 46.328,17 45.5,17 Z M35.5,17 C34.672,17 34,17.672 34,18.5 C34,19.329 34.672,20 35.5,20 C36.328,20 37,19.329 37,18.5 C37,17.672 36.328,17 35.5,17 Z" id="Shape" fill="#868686"></path>
            <path d="M0,46 C0,47.657 1.344,49 3,49 L53,49 C54.656,49 56,47.657 56,46 L56,40 L0,40 L0,46 Z" id="Shape" fill="#475A66"></path>
            <path d="M5.5,43 C6.328,43 7,43.672 7,44.5 C7,45.329 6.328,46 5.5,46 C4.672,46 4,45.329 4,44.5 C4,43.672 4.671,43 5.5,43 Z" id="Shape" fill="#45B39C"></path>
            <polygon id="Shape" fill="#2F3A40" points="58 26.216 56 28.286 56 37.715 58 39.785"></polygon>
        </g>
    </g>
</svg>