<?xml version="1.0" encoding="UTF-8"?>
<svg width="65px" height="64px" viewBox="0 0 65 64" version="1.1" xmlns="http://www.w3.org/2000/svg" xmlns:xlink="http://www.w3.org/1999/xlink">
    <!-- Generator: Sketch 52.6 (67491) - http://www.bohemiancoding.com/sketch -->
    <title>Untitled</title>
    <desc>Created with Sketch.</desc>
    <g id="Page-1" stroke="none" stroke-width="1" fill="none" fill-rule="evenodd">
        <g id="composer-edit-icon">
            <circle id="Oval" fill-opacity="0.7" fill="#FFFFFF" cx="32.833" cy="32" r="32"></circle>
            <g id="Group" transform="translate(13.000000, 12.000000)">
                <g id="Path">
                    <g opacity="0.2" transform="translate(0.000000, 2.000000)" fill="#231F20">
                        <path d="M16,9 L16,0 L3,0 C1.343,0 0,1.343 0,3 L0,37 C0,38.657 1.343,40 3,40 L25,40 C26.657,40 28,38.657 28,37 L28,12 L19,12 C17.343,12 16,10.657 16,9 Z"></path>
                    </g>
                    <path d="M25,0 L16,0 L3,0 C1.343,0 0,1.343 0,3 L0,28 L0,37 C0,38.657 1.343,40 3,40 L12,40 L25,40 C26.657,40 28,38.657 28,37 L28,12 L28,3 C28,1.343 26.657,0 25,0 Z" fill="#E0E0D1"></path>
                </g>
                <g opacity="0.2" transform="translate(4.000000, 7.000000)" fill="#231F20" id="Rectangle">
                    <rect x="0" y="0" width="10" height="2"></rect>
                </g>
                <g opacity="0.2" transform="translate(4.000000, 23.000000)" fill="#231F20" id="Rectangle">
                    <rect x="0" y="0" width="20" height="2"></rect>
                </g>
                <g opacity="0.2" transform="translate(4.000000, 18.000000)" fill="#231F20" id="Rectangle">
                    <rect x="0" y="0" width="20" height="2"></rect>
                </g>
                <g opacity="0.2" transform="translate(4.000000, 13.000000)" fill="#231F20" id="Rectangle">
                    <rect x="0" y="0" width="20" height="2"></rect>
                </g>
                <g opacity="0.2" transform="translate(4.000000, 28.000000)" fill="#231F20" id="Rectangle">
                    <rect x="0" y="0" width="20" height="2"></rect>
                </g>
                <g opacity="0.2" transform="translate(4.000000, 33.000000)" fill="#231F20" id="Rectangle">
                    <rect x="0" y="0" width="20" height="2"></rect>
                </g>
            </g>
            <g id="Group" opacity="0.2" transform="translate(21.000000, 13.000000)" fill="#231F20">
                <path d="M35.121,8.864 L28.05,1.793 C26.878,0.621 24.979,0.621 23.807,1.793 L20.271,5.329 L19.564,6.036 L3.302,22.299 L1.416,31.727 L0.473,36.441 L5.187,35.498 L14.615,33.612 L30.878,17.349 L31.585,16.642 L35.121,13.106 C36.293,11.935 36.293,10.036 35.121,8.864 Z" id="Path"></path>
            </g>
            <path d="M51.879,28.435 C50.707,29.607 48.808,29.607 47.636,28.435 L40.565,21.364 C39.393,20.192 39.393,18.293 40.565,17.121 L44.808,12.878 C45.98,11.706 47.879,11.706 49.051,12.878 L56.122,19.949 C57.294,21.121 57.294,23.02 56.122,24.192 L51.879,28.435 Z" id="Path" fill="#C75C5C"></path>
            <rect id="Rectangle" fill="#E0995E" transform="translate(34.200756, 26.314002) rotate(-45.000000) translate(-34.200756, -26.314002) " x="22.2008716" y="24.3140215" width="23.9997698" height="3.99996164"></rect>
            <rect id="Rectangle" fill="#F5CF87" transform="translate(37.736100, 31.262835) rotate(-45.000000) translate(-37.736100, -31.262835) " x="24.7362247" y="27.262873" width="25.9997507" height="7.99992328"></rect>
            <rect id="Rectangle" fill="#E0995E" transform="translate(42.685544, 34.799202) rotate(-45.000000) translate(-42.685544, -34.799202) " x="30.6856586" y="32.7992215" width="23.9997698" height="3.99996164"></rect>
            <g id="Group" transform="translate(21.000000, 33.000000)">
                <polygon id="Path" fill="#4F5D73" points="0.473 14.527 5.187 13.584 1.416 9.813"></polygon>
                <polygon id="Path" fill="#FFFFFF" points="3.302 0.385 1.416 9.813 5.187 13.584 14.615 11.698 13.201 10.284 13.201 7.456 7.544 7.456 7.544 1.799 4.716 1.799"></polygon>
            </g>
        </g>
    </g>
</svg>