<svg xmlns="http://www.w3.org/2000/svg" data-name="Line copy" viewBox="0 0 256 320" x="0px" y="0px"><title>Carpenter Line</title><path d="M229.52,99.4391V33.8838a14.0157,14.0157,0,0,0-14-14h-46.668a14.0157,14.0157,0,0,0-14,14V99.4391a2.97,2.97,0,0,0-.1807.9905v43.1631a2.97,2.97,0,0,0,.1807.9905v1.1159c0,8.8359,5.6387,14.874,15.47,16.5654,9.5566,1.6465,9.43,7.0225,8.4326,15.6572-.1279,1.1025-.26,2.2412-.3437,3.3271l-3.5039,27.8994q-.0088.0732-.0146.1465c-.0176.23-1.3008,23.3105,4.3408,26.709,2.4941,1.501,8.52,3.87,12.2539,4.2012a3.1872,3.1872,0,0,0,.7031.042c.0615.0029.1279.0049.165.0049a2.8988,2.8988,0,0,0,.5234-.0469c3.7344-.3291,9.7656-2.6992,12.2617-4.2021,5.6406-3.3975,4.3574-26.4775,4.34-26.708q-.0059-.0732-.0146-.1465l-3.5039-27.8994c-.084-1.0859-.2158-2.2246-.3437-3.3271-.9971-8.6348-1.124-14.0107,8.4326-15.6572,9.8311-1.6924,15.47-7.7295,15.47-16.5654v-1.1159a2.97,2.97,0,0,0,.1807-.9905V100.43A2.97,2.97,0,0,0,229.52,99.4391ZM215.502,25.8838h.0176a8.0092,8.0092,0,0,1,8,8V97.43H215.502Zm-13.5439,0h7.5439V97.43H201.958Zm-13.5449,0h7.5449V97.43h-7.5449Zm-13.5449,0h7.5449V97.43h-7.5449Zm-14.0166,8a8.0092,8.0092,0,0,1,8-8h.0166V97.43h-8.0166Zm52.1807,122.4688c-15.6357,2.6924-14.2207,14.94-13.375,22.2578.126,1.0918.25,2.1563.3271,3.1689q.0059.0732.0146.1465l3.5029,27.8965c.5977,7.9912-.498,18.958-1.75,21.2109-2.3281,1.2988-7.3437,3.0879-9.5547,3.2061a.0349.0349,0,0,1-.0244,0c-2.2109-.1182-7.2266-1.9072-9.5537-3.2061-1.252-2.2529-2.3477-13.22-1.75-21.2109l3.5029-27.8965q.0088-.0732.0146-.1465c.0771-1.0127.2012-2.0771.3271-3.1689.8457-7.3174,2.2607-19.5654-13.375-22.2578-6.5972-1.1359-10.1052-4.42-10.4529-9.76h62.5991C223.1375,151.9328,219.6294,155.2166,213.0322,156.3525Zm10.4873-15.76h-62.668V115.6455H223.52Zm.1807-30.9473H160.6709V103.43H223.7Z"/><path d="M192.1855,229.63a9.0319,9.0319,0,1,0-8.5156-9.0176A8.7873,8.7873,0,0,0,192.1855,229.63Zm0-12.0342a3.0671,3.0671,0,1,1-2.5156,3.0166A2.8042,2.8042,0,0,1,192.1855,217.5957Z"/><path d="M75.8789,229.63a9.0171,9.0171,0,1,0-9.0166-9.0176A9.0271,9.0271,0,0,0,75.8789,229.63Zm0-12.0342a3.0171,3.0171,0,1,1-3.0166,3.0166A3.02,3.02,0,0,1,75.8789,217.5957Z"/><path d="M115.3232,40.7H36.4346a14.0016,14.0016,0,0,0-13.9,15.6689l5.4238,45.1591v42.0645a2.9782,2.9782,0,0,0,.1973,1.044v1.0624c0,8.8584,6.083,14.8984,16.6895,16.5723,15.8242,2.498,16.6719,14.0254,16.28,18.9551l-3.8213,27.8887c-.0068.0527-.0127.1055-.0166.1592-.02.2314-1.3242,23.46,4.7,26.7861,2.6943,1.4863,9.2012,3.833,13.1992,4.1484a3.3528,3.3528,0,0,0,.6885.0381c.0645.0029.1289.0049.1885.0049a2.9428,2.9428,0,0,0,.502-.043c3.998-.3135,10.51-2.6611,13.2061-4.1494,6.0225-3.3252,4.7178-26.5537,4.6982-26.7852-.0039-.0537-.01-.1064-.0166-.1592l-3.8213-27.8887c-.3906-4.93.4561-16.457,16.2812-18.9551,10.6055-1.6729,16.6885-7.7139,16.6885-16.5723V144.64a2.9786,2.9786,0,0,0,.1982-1.0472V101.52l5.4229-45.15A13.9989,13.9989,0,0,0,115.3232,40.7Zm-15.916,6h7.5449V97.43H99.4072ZM85.44,46.7h7.9668V97.43H85.44Zm-13.5449,0H79.44V97.43H71.8955Zm-13.5449,0h7.5449V97.43H58.3506Zm-13.5449,0h7.5449V97.43H44.8057ZM28.4912,55.6543A8.0014,8.0014,0,0,1,36.4346,46.7h2.3711V97.43H33.5088Zm77.4863,100.6914C88.9238,159.0371,83.7832,171.26,84.6592,181.8c.0039.0537.01.1064.0166.1592l3.8213,27.89c.6494,7.9814-.54,18.9189-1.8984,21.1045C84,232.3,78.4531,234.1143,75.92,234.2393c-.0283.001-.0566,0-.083,0-2.5332-.125-8.0811-1.94-10.6777-3.2861-1.3584-2.1865-2.5488-13.123-1.8994-21.1045l3.8213-27.89c.0068-.0527.0127-.1055.0166-.1592.876-10.54-4.2646-22.7627-21.3174-25.4541-5.0776-.8013-11.0728-3.1629-11.5757-9.7529h83.3477C117.0493,153.1828,111.0542,155.5444,105.9775,156.3457Zm11.624-15.7529H34.1553V115.6455h83.4463Zm.1982-30.9473H33.958V103.43h7.1152a2.7169,2.7169,0,0,0,1.4648,0h12.08a2.7169,2.7169,0,0,0,1.4648,0h12.08a2.7169,2.7169,0,0,0,1.4648,0h12.08a2.7169,2.7169,0,0,0,1.4648,0h12.502a2.7169,2.7169,0,0,0,1.4648,0h12.08a2.7169,2.7169,0,0,0,1.4648,0H117.8Zm5.4658-53.9912L118.248,97.43h-5.2959V46.7h2.3711a8,8,0,0,1,7.9424,8.9541Z"/><text x="0" y="271" fill="#000000" font-size="5px" font-weight="bold" font-family="'Helvetica Neue', Helvetica, Arial-Unicode, Arial, Sans-serif">Created by nuengrutai</text><text x="0" y="276" fill="#000000" font-size="5px" font-weight="bold" font-family="'Helvetica Neue', Helvetica, Arial-Unicode, Arial, Sans-serif">from the Noun Project</text></svg>