<?xml version="1.0" ?><!DOCTYPE svg  PUBLIC '-//W3C//DTD SVG 1.1//EN'  'http://www.w3.org/Graphics/SVG/1.1/DTD/svg11.dtd'><svg height="128px" style="shape-rendering:geometricPrecision; text-rendering:geometricPrecision; image-rendering:optimizeQuality; fill-rule:evenodd; clip-rule:evenodd" version="1.1" viewBox="0 0 25441 25441" width="128px" xml:space="preserve" xmlns="http://www.w3.org/2000/svg" xmlns:xlink="http://www.w3.org/1999/xlink"><defs><style type="text/css">
   <![CDATA[
    .fil6 {fill:none}
    .fil5 {fill:#53B4ED}
    .fil3 {fill:#8E8E93}
    .fil2 {fill:#AFB0B5}
    .fil1 {fill:#C5C7CB}
    .fil7 {fill:#CAD0D1}
    .fil4 {fill:#E1E3E8}
    .fil0 {fill:#FF576B}
    .fil8 {fill:white}
   ]]>
  </style><clipPath id="id0"><path d="M12721 0c7025,0 12720,5695 12720,12721 0,7025 -5695,12720 -12720,12720 -7026,0 -12721,-5695 -12721,-12720 0,-7026 5695,-12721 12721,-12721z"/></clipPath></defs><g id="Layer_x0020_1"><g id="_376717144"><path class="fil0" d="M12721 0c7025,0 12720,5695 12720,12721 0,7025 -5695,12720 -12720,12720 -7026,0 -12721,-5695 -12721,-12720 0,-7026 5695,-12721 12721,-12721z"/><g style="clip-path:url(#id0)"><g><g><rect class="fil1" height="29019" width="7479" x="10137" y="2940"/><polygon class="fil2" points="12300,7853 17616,15239 17616,31958 12300,31958 "/><path class="fil3" d="M10940 4536l5873 0 0 801 -5873 0 0 -801zm0 20837l5873 0 0 801 -5873 0 0 -801zm0 -1895l5873 0 0 802 -5873 0 0 -802zm0 -1894l5873 0 0 801 -5873 0 0 -801zm0 -1894l5873 0 0 801 -5873 0 0 -801zm0 -1894l5873 0 0 801 -5873 0 0 -801zm0 -1895l5873 0 0 802 -5873 0 0 -802zm0 -1894l5873 0 0 801 -5873 0 0 -801zm0 -1894l5873 0 0 801 -5873 0 0 -801zm0 -1895l5873 0 0 802 -5873 0 0 -802zm0 -1894l5873 0 0 801 -5873 0 0 -801zm0 -1894l5873 0 0 801 -5873 0 0 -801z"/><rect class="fil4" height="16719" width="5810" x="14526" y="15239"/><rect class="fil4" height="24105" width="7664" x="4636" y="7853"/><g><rect class="fil5" height="801" width="5873" x="5532" y="9002"/><rect class="fil5" height="801" width="5873" x="5532" y="10896"/><rect class="fil5" height="801" width="5873" x="5532" y="12790"/><rect class="fil5" height="801" width="5873" x="5532" y="14684"/><rect class="fil5" height="801" width="5873" x="5532" y="16579"/><rect class="fil5" height="801" width="5873" x="5532" y="18473"/><rect class="fil5" height="801" width="5873" x="5532" y="20367"/><rect class="fil5" height="801" width="5873" x="5532" y="22262"/><rect class="fil5" height="801" width="5873" x="5532" y="24156"/><rect class="fil5" height="801" width="5873" x="5532" y="26050"/><rect class="fil5" height="801" width="5873" x="5532" y="27945"/><rect class="fil5" height="801" width="5873" x="5532" y="29839"/></g><g><rect class="fil5" height="19379" transform="matrix(2.52451E-014 -2.32572 0.0413479 2.67189E-015 15459.3 30640)" width="6161"/><rect class="fil5" height="19379" transform="matrix(2.52451E-014 -2.32572 0.0413479 2.67189E-015 17029.9 30640)" width="6161"/><rect class="fil5" height="19379" transform="matrix(2.52451E-014 -2.32572 0.0413479 2.67189E-015 18600.5 30640)" width="6161"/></g></g></g></g><path class="fil6" d="M12721 0c7025,0 12720,5695 12720,12721 0,7025 -5695,12720 -12720,12720 -7026,0 -12721,-5695 -12721,-12720 0,-7026 5695,-12721 12721,-12721z"/><g><path class="fil7" d="M21282 9645c708,0 1296,511 1417,1184 59,-16 121,-24 184,-24 370,0 676,277 720,635 189,31 334,195 334,393 0,27 -3,54 -8,80l-4671 0c-26,-88 -40,-182 -40,-279 0,-434 283,-802 675,-930 167,-610 725,-1059 1389,-1059z"/><path class="fil8" d="M23598 11405c2,12 4,23 5,35 189,31 334,195 334,393 0,25 -2,49 -7,73l-11 7 -306 0c-88,-52 -147,-149 -147,-259 0,-103 52,-195 132,-249z"/><path class="fil8" d="M22715 10825c54,-13 110,-20 168,-20 321,0 593,208 689,496 -93,173 -276,291 -486,291 -148,0 -283,-59 -382,-154 36,-101 56,-209 56,-322 0,-102 -16,-200 -45,-291z"/><path class="fil8" d="M19258 11913c-26,-88 -40,-182 -40,-279 0,-434 283,-802 675,-930l5 -19 1 0c439,0 795,356 795,795 0,160 -47,308 -128,433l-1308 0z"/><path class="fil8" d="M21282 9645c373,0 714,143 970,376 12,72 19,146 19,221 0,704 -571,1275 -1275,1275 -104,0 -205,-13 -302,-36l0 -1c0,-439 -356,-795 -795,-795l-1 0c174,-601 727,-1040 1384,-1040z"/></g><g><path class="fil7" d="M4925 4347c708,0 1297,510 1418,1183 59,-15 120,-23 184,-23 370,0 675,277 720,635 189,30 333,194 333,392 0,28 -2,54 -8,80l-4670 0c-26,-88 -41,-182 -41,-279 0,-434 283,-802 675,-930 167,-610 726,-1058 1389,-1058z"/><path class="fil8" d="M7242 6107c2,11 3,23 5,35 189,30 333,194 333,392 0,25 -2,50 -6,73l-12 7 -305 0c-88,-52 -148,-148 -148,-258 0,-104 53,-195 133,-249z"/><path class="fil8" d="M6358 5526c54,-13 111,-19 169,-19 320,0 592,207 688,496 -93,172 -275,290 -485,290 -149,0 -283,-59 -382,-154 36,-100 56,-209 56,-322 0,-101 -16,-199 -46,-291z"/><path class="fil8" d="M2902 6614c-27,-88 -41,-182 -41,-279 0,-434 283,-802 675,-930l6 -19 0 0c440,0 796,356 796,795 0,160 -48,309 -129,433l-1307 0z"/><path class="fil8" d="M4925 4347c374,0 714,142 970,375 13,72 19,146 19,221 0,705 -570,1275 -1275,1275 -104,0 -205,-12 -301,-36l0 -1c0,-439 -356,-795 -796,-795l0 0c173,-600 727,-1039 1383,-1039z"/></g></g></g></svg>