<?xml version="1.0" encoding="UTF-8"?>
<svg width="575px" height="546px" viewBox="0 0 575 546" version="1.1" xmlns="http://www.w3.org/2000/svg" xmlns:xlink="http://www.w3.org/1999/xlink">
    <!-- Generator: Sketch 52.6 (67491) - http://www.bohemiancoding.com/sketch -->
    <title>camera</title>
    <desc>Created with Sketch.</desc>
    <g id="Page-1" stroke="none" stroke-width="1" fill="none" fill-rule="evenodd">
        <g id="Group-2" transform="translate(0.000000, 10.000000)" fill-rule="nonzero">
            <path d="M257.5,377 L181,526" id="Line" stroke="#16273B" stroke-width="20" stroke-linecap="round" stroke-linejoin="round"></path>
            <path d="M256,387.5 L256,514" id="Line" stroke="#16273B" stroke-width="20" stroke-linecap="round" stroke-linejoin="round"></path>
            <path d="M262,387.5 L330,520" id="Line" stroke="#16273B" stroke-width="20" stroke-linecap="round" stroke-linejoin="round"></path>
            <rect id="Rectangle" fill="#16273B" x="178" y="350" width="159" height="38" rx="19"></rect>
            <rect id="Rectangle" fill="#435468" x="0" y="89" width="495" height="280" rx="20"></rect>
            <rect id="Rectangle" fill="#1C2E43" x="0" y="289" width="495" height="51"></rect>
            <g id="Group" transform="translate(60.000000, 0.000000)">
                <circle id="Oval" stroke="#FFFFFF" stroke-width="10" fill="#D8D8D8" cx="89.5" cy="89.5" r="94.5"></circle>
                <circle id="Oval" fill="#B6B6B6" cx="89.5" cy="33.5" r="14.5"></circle>
                <circle id="Oval" fill="#B6B6B6" cx="89.5" cy="150.5" r="14.5"></circle>
                <path d="M127.924679,69.5245708 C123.962556,62.6619725 126.313856,53.8868019 133.176454,49.9246789 C140.039053,45.9625559 148.814223,48.3138558 152.776346,55.1764541 C156.738469,62.0390525 154.387169,70.814223 147.524571,74.776346 C140.661972,78.7384691 131.886802,76.3871692 127.924679,69.5245708 Z" id="Oval" fill="#B6B6B6"></path>
                <path d="M25.9246789,126.524571 C21.9625559,119.661972 24.3138558,110.886802 31.1764541,106.924679 C38.0390525,102.962556 46.814223,105.313856 50.776346,112.176454 C54.7384691,119.039053 52.3871692,127.814223 45.5245708,131.776346 C38.6619725,135.738469 29.8868019,133.387169 25.9246789,126.524571 Z" id="Oval" fill="#B6B6B6"></path>
                <path d="M127.924679,112.176454 C131.886802,105.313856 140.661972,102.962556 147.524571,106.924679 C154.387169,110.886802 156.738469,119.661972 152.776346,126.524571 C148.814223,133.387169 140.039053,135.738469 133.176454,131.776346 C126.313856,127.814223 123.962556,119.039053 127.924679,112.176454 Z" id="Oval" fill="#B6B6B6"></path>
                <path d="M25.9467041,55.4701837 C29.9088271,48.6075853 38.6839976,46.2562854 45.546596,50.2184085 C52.4091944,54.1805315 54.7604943,62.955702 50.7983712,69.8183004 C46.8362482,76.6808987 38.0610777,79.0321986 31.1984793,75.0700756 C24.3358809,71.1079526 21.9845811,62.332782 25.9467041,55.4701837 Z" id="Oval" fill="#B6B6B6"></path>
            </g>
            <g id="Group" transform="translate(256.000000, 0.000000)">
                <circle id="Oval" stroke="#FFFFFF" stroke-width="10" fill="#D8D8D8" cx="89.5" cy="89.5" r="94.5"></circle>
                <circle id="Oval" fill="#B6B6B6" cx="89.5" cy="33.5" r="14.5"></circle>
                <circle id="Oval" fill="#B6B6B6" cx="89.5" cy="150.5" r="14.5"></circle>
                <path d="M127.924679,69.5245708 C123.962556,62.6619725 126.313856,53.8868019 133.176454,49.9246789 C140.039053,45.9625559 148.814223,48.3138558 152.776346,55.1764541 C156.738469,62.0390525 154.387169,70.814223 147.524571,74.776346 C140.661972,78.7384691 131.886802,76.3871692 127.924679,69.5245708 Z" id="Oval" fill="#B6B6B6"></path>
                <path d="M25.9246789,126.524571 C21.9625559,119.661972 24.3138558,110.886802 31.1764541,106.924679 C38.0390525,102.962556 46.814223,105.313856 50.776346,112.176454 C54.7384691,119.039053 52.3871692,127.814223 45.5245708,131.776346 C38.6619725,135.738469 29.8868019,133.387169 25.9246789,126.524571 Z" id="Oval" fill="#B6B6B6"></path>
                <path d="M127.924679,112.176454 C131.886802,105.313856 140.661972,102.962556 147.524571,106.924679 C154.387169,110.886802 156.738469,119.661972 152.776346,126.524571 C148.814223,133.387169 140.039053,135.738469 133.176454,131.776346 C126.313856,127.814223 123.962556,119.039053 127.924679,112.176454 Z" id="Oval" fill="#B6B6B6"></path>
                <path d="M25.9467041,55.4701837 C29.9088271,48.6075853 38.6839976,46.2562854 45.546596,50.2184085 C52.4091944,54.1805315 54.7604943,62.955702 50.7983712,69.8183004 C46.8362482,76.6808987 38.0610777,79.0321986 31.1984793,75.0700756 C24.3358809,71.1079526 21.9845811,62.332782 25.9467041,55.4701837 Z" id="Oval" fill="#B6B6B6"></path>
            </g>
            <path d="M495.5,150 L560.527864,280.055728 C565.467649,289.935298 561.463162,301.948759 551.583592,306.888544 C548.806483,308.277098 545.744222,309 542.63932,309 L448.36068,309 C437.314985,309 428.36068,300.045695 428.36068,289 C428.36068,285.895098 429.083582,282.832837 430.472136,280.055728 L495.5,150 Z" id="Triangle" fill="#435468" transform="translate(495.500000, 229.500000) rotate(-90.000000) translate(-495.500000, -229.500000) "></path>
            <circle id="Oval" fill="#F80A0A" cx="30.5" cy="314.5" r="11.5"></circle>
            <circle id="Oval" fill="#710404" cx="64.5" cy="314.5" r="12.5"></circle>
            <circle id="Oval" fill="#710404" cx="97.5" cy="314.5" r="12.5"></circle>
        </g>
    </g>
</svg>