<?xml version="1.0" encoding="UTF-8"?>
<svg width="1049px" height="708px" viewBox="0 0 1049 708" version="1.1" xmlns="http://www.w3.org/2000/svg" xmlns:xlink="http://www.w3.org/1999/xlink">
    <!-- Generator: Sketch 51.3 (57544) - http://www.bohemiancoding.com/sketch -->
    <title>Untitled</title>
    <desc>Created with Sketch.</desc>
    <defs></defs>
    <g id="Page-1" stroke="none" stroke-width="1" fill="none" fill-rule="evenodd">
        <rect id="Rectangle" stroke="#D9D8D8" stroke-width="10" fill="#EFEEEE" fill-rule="nonzero" x="5" y="5" width="1039" height="698"></rect>
        <rect id="Rectangle" stroke="#D9D8D8" stroke-width="10" fill="#F9F6F6" fill-rule="nonzero" x="45" y="41" width="959" height="626"></rect>
        <path d="M268.546875,137.046875 L268.546875,143.515625 C265.390609,140.874987 262.125017,139.554688 258.75,139.554688 C255.031231,139.554688 251.89845,140.890612 249.351562,143.5625 C246.78905,146.218763 245.507812,149.468731 245.507812,153.3125 C245.507812,157.109394 246.78905,160.312487 249.351562,162.921875 C251.914075,165.531263 255.054669,166.835938 258.773438,166.835938 C260.695322,166.835938 262.328118,166.523441 263.671875,165.898438 C264.421879,165.585936 265.199215,165.164065 266.003906,164.632812 C266.808598,164.10156 267.656246,163.460941 268.546875,162.710938 L268.546875,169.296875 C265.421859,171.062509 262.140642,171.945312 258.703125,171.945312 C253.531224,171.945312 249.117206,170.140643 245.460938,166.53125 C241.820294,162.890607 240,158.500026 240,153.359375 C240,148.749977 241.523422,144.640643 244.570312,141.03125 C248.320331,136.609353 253.171845,134.398438 259.125,134.398438 C262.375016,134.398438 265.51561,135.281241 268.546875,137.046875 Z M295.21875,161.117188 L278.859375,161.117188 C279.000001,162.992197 279.60937,164.484369 280.6875,165.59375 C281.76563,166.687505 283.148429,167.234375 284.835938,167.234375 C286.148444,167.234375 287.234371,166.921878 288.09375,166.296875 C288.937504,165.671872 289.898432,164.515633 290.976562,162.828125 L295.429688,165.3125 C294.742184,166.484381 294.015629,167.488277 293.25,168.324219 C292.484371,169.16016 291.664067,169.847654 290.789062,170.386719 C289.914058,170.925784 288.968755,171.320311 287.953125,171.570312 C286.937495,171.820314 285.835943,171.945312 284.648438,171.945312 C281.24217,171.945312 278.507823,170.851573 276.445312,168.664062 C274.382802,166.460926 273.351562,163.539081 273.351562,159.898438 C273.351562,156.289044 274.351553,153.367199 276.351562,151.132812 C278.367198,148.929676 281.039046,147.828125 284.367188,147.828125 C287.726579,147.828125 290.382803,148.898427 292.335938,151.039062 C294.273447,153.164073 295.242188,156.109356 295.242188,159.875 L295.21875,161.117188 Z M289.804688,156.804688 C289.070309,153.992173 287.296889,152.585938 284.484375,152.585938 C283.843747,152.585938 283.24219,152.683593 282.679688,152.878906 C282.117185,153.07422 281.605471,153.355467 281.144531,153.722656 C280.683591,154.089846 280.289064,154.531247 279.960938,155.046875 C279.632811,155.562503 279.382813,156.148434 279.210938,156.804688 L289.804688,156.804688 Z M300.984375,148.460938 L306.257812,148.460938 L306.257812,150.5 C307.226567,149.48437 308.085934,148.789064 308.835938,148.414062 C309.601566,148.023436 310.507807,147.828125 311.554688,147.828125 C312.945319,147.828125 314.39843,148.281245 315.914062,149.1875 L313.5,154.015625 C312.499995,153.296871 311.523442,152.9375 310.570312,152.9375 C307.695298,152.9375 306.257812,155.109353 306.257812,159.453125 L306.257812,171.289062 L300.984375,171.289062 L300.984375,148.460938 Z M326.109375,153.382812 L326.109375,171.289062 L320.835938,171.289062 L320.835938,153.382812 L318.585938,153.382812 L318.585938,148.460938 L320.835938,148.460938 L320.835938,140.09375 L326.109375,140.09375 L326.109375,148.460938 L330.210938,148.460938 L330.210938,153.382812 L326.109375,153.382812 Z M339.070312,148.460938 L339.070312,171.289062 L333.796875,171.289062 L333.796875,148.460938 L339.070312,148.460938 Z M333,138.96875 C333,138.04687 333.335934,137.250003 334.007812,136.578125 C334.679691,135.906247 335.48437,135.570312 336.421875,135.570312 C337.375005,135.570312 338.187497,135.906247 338.859375,136.578125 C339.531253,137.234378 339.867188,138.039058 339.867188,138.992188 C339.867188,139.945317 339.531253,140.757809 338.859375,141.429688 C338.203122,142.101566 337.398442,142.4375 336.445312,142.4375 C335.492183,142.4375 334.679691,142.101566 334.007812,141.429688 C333.335934,140.757809 333,139.937505 333,138.96875 Z M364.546875,142.4375 L359.273438,142.4375 L359.273438,140.304688 C359.273438,139.148432 358.898441,138.132817 358.148438,137.257812 C357.351559,136.367183 356.375006,135.921875 355.21875,135.921875 C354.078119,135.921875 353.117191,136.359371 352.335938,137.234375 C351.570309,138.093754 351.1875,139.117182 351.1875,140.304688 L351.1875,148.460938 L357.234375,148.460938 L357.234375,153.382812 L351.1875,153.382812 L351.1875,171.289062 L345.914062,171.289062 L345.914062,153.382812 L344.039062,153.382812 L344.039062,148.460938 L345.914062,148.460938 L345.914062,140.304688 C345.914062,137.742175 346.820303,135.554697 348.632812,133.742188 C350.460947,131.914053 352.66405,131 355.242188,131 C357.8047,131 359.992178,131.914053 361.804688,133.742188 C363.632822,135.554697 364.546875,137.742175 364.546875,140.304688 L364.546875,142.4375 Z M364.546875,171.289062 L359.273438,171.289062 L359.273438,148.460938 L364.546875,148.460938 L364.546875,171.289062 Z M388.992188,149.445312 L388.992188,156.453125 C387.789056,154.984368 386.710942,153.976565 385.757812,153.429688 C384.820308,152.867185 383.718756,152.585938 382.453125,152.585938 C380.46874,152.585938 378.820319,153.281243 377.507812,154.671875 C376.195306,156.062507 375.539062,157.804677 375.539062,159.898438 C375.539062,162.039073 376.171869,163.796868 377.4375,165.171875 C378.718756,166.546882 380.351553,167.234375 382.335938,167.234375 C383.601569,167.234375 384.718745,166.96094 385.6875,166.414062 C386.625005,165.88281 387.726556,164.85157 388.992188,163.320312 L388.992188,170.28125 C386.851552,171.390631 384.710948,171.945312 382.570312,171.945312 C379.039045,171.945312 376.085949,170.804699 373.710938,168.523438 C371.335926,166.226551 370.148438,163.375017 370.148438,159.96875 C370.148438,156.562483 371.35155,153.687512 373.757812,151.34375 C376.164075,148.999988 379.11717,147.828125 382.617188,147.828125 C384.867199,147.828125 386.992178,148.367182 388.992188,149.445312 Z M410.929688,148.460938 L416.226562,148.460938 L416.226562,171.289062 L410.929688,171.289062 L410.929688,168.898438 C408.757802,170.929698 406.421887,171.945312 403.921875,171.945312 C400.765609,171.945312 398.15626,170.804699 396.09375,168.523438 C394.046865,166.195301 393.023438,163.28908 393.023438,159.804688 C393.023438,156.382795 394.046865,153.531261 396.09375,151.25 C398.140635,148.968739 400.70311,147.828125 403.78125,147.828125 C406.437513,147.828125 408.820302,148.921864 410.929688,151.109375 L410.929688,148.460938 Z M398.414062,159.804688 C398.414062,161.992198 398.999994,163.773431 400.171875,165.148438 C401.375006,166.539069 402.890616,167.234375 404.71875,167.234375 C406.671885,167.234375 408.249994,166.562507 409.453125,165.21875 C410.656256,163.828118 411.257812,162.062511 411.257812,159.921875 C411.257812,157.781239 410.656256,156.015632 409.453125,154.625 C408.249994,153.265618 406.68751,152.585938 404.765625,152.585938 C402.953116,152.585938 401.437506,153.273431 400.21875,154.648438 C399.015619,156.039069 398.414062,157.757802 398.414062,159.804688 Z M428.320312,153.382812 L428.320312,171.289062 L423.046875,171.289062 L423.046875,153.382812 L420.796875,153.382812 L420.796875,148.460938 L423.046875,148.460938 L423.046875,140.09375 L428.320312,140.09375 L428.320312,148.460938 L432.421875,148.460938 L432.421875,153.382812 L428.320312,153.382812 Z M457.21875,161.117188 L440.859375,161.117188 C441.000001,162.992197 441.60937,164.484369 442.6875,165.59375 C443.76563,166.687505 445.148429,167.234375 446.835938,167.234375 C448.148444,167.234375 449.234371,166.921878 450.09375,166.296875 C450.937504,165.671872 451.898432,164.515633 452.976562,162.828125 L457.429688,165.3125 C456.742184,166.484381 456.015629,167.488277 455.25,168.324219 C454.484371,169.16016 453.664067,169.847654 452.789062,170.386719 C451.914058,170.925784 450.968755,171.320311 449.953125,171.570312 C448.937495,171.820314 447.835943,171.945312 446.648438,171.945312 C443.24217,171.945312 440.507823,170.851573 438.445312,168.664062 C436.382802,166.460926 435.351562,163.539081 435.351562,159.898438 C435.351562,156.289044 436.351553,153.367199 438.351562,151.132812 C440.367198,148.929676 443.039046,147.828125 446.367188,147.828125 C449.726579,147.828125 452.382803,148.898427 454.335938,151.039062 C456.273447,153.164073 457.242188,156.109356 457.242188,159.875 L457.21875,161.117188 Z M451.804688,156.804688 C451.070309,153.992173 449.296889,152.585938 446.484375,152.585938 C445.843747,152.585938 445.24219,152.683593 444.679688,152.878906 C444.117185,153.07422 443.605471,153.355467 443.144531,153.722656 C442.683591,154.089846 442.289064,154.531247 441.960938,155.046875 C441.632811,155.562503 441.382813,156.148434 441.210938,156.804688 L451.804688,156.804688 Z M476.71875,159.710938 C476.71875,156.414046 477.898426,153.609387 480.257812,151.296875 C482.617199,148.984363 485.492171,147.828125 488.882812,147.828125 C492.28908,147.828125 495.179676,148.992176 497.554688,151.320312 C499.898449,153.648449 501.070312,156.507796 501.070312,159.898438 C501.070312,163.32033 499.890637,166.187488 497.53125,168.5 C495.156238,170.796886 492.242205,171.945312 488.789062,171.945312 C485.36717,171.945312 482.500012,170.773449 480.1875,168.429688 C477.874988,166.117176 476.71875,163.210955 476.71875,159.710938 Z M482.109375,159.804688 C482.109375,162.085949 482.718744,163.890618 483.9375,165.21875 C485.187506,166.562507 486.835927,167.234375 488.882812,167.234375 C490.945323,167.234375 492.593744,166.570319 493.828125,165.242188 C495.062506,163.914056 495.679688,162.140636 495.679688,159.921875 C495.679688,157.703114 495.062506,155.929694 493.828125,154.601562 C492.578119,153.257806 490.929698,152.585938 488.882812,152.585938 C486.867177,152.585938 485.234381,153.257806 483.984375,154.601562 C482.734369,155.945319 482.109375,157.679677 482.109375,159.804688 Z M512.109375,153.382812 L512.109375,171.289062 L506.8125,171.289062 L506.8125,153.382812 L504.9375,153.382812 L504.9375,148.460938 L506.8125,148.460938 L506.8125,139.648438 C506.8125,136.773423 507.312495,134.742193 508.3125,133.554688 C509.687507,131.898429 511.687487,131.070312 514.3125,131.070312 C515.250005,131.070312 516.42968,131.343747 517.851562,131.890625 L517.851562,137.28125 L517.3125,137 C516.171869,136.421872 515.234379,136.132812 514.5,136.132812 C513.562495,136.132812 512.929689,136.468747 512.601562,137.140625 C512.273436,137.796878 512.109375,139.062491 512.109375,140.9375 L512.109375,148.460938 L517.851562,148.460938 L517.851562,153.382812 L512.109375,153.382812 Z M557.976562,162.5 L542.484375,162.5 L538.453125,171.289062 L532.570312,171.289062 L550.476562,132.828125 L567.75,171.289062 L561.773438,171.289062 L557.976562,162.5 Z M555.75,157.367188 L550.382812,145.0625 L544.757812,157.367188 L555.75,157.367188 Z M588.796875,149.445312 L588.796875,156.453125 C587.593744,154.984368 586.51563,153.976565 585.5625,153.429688 C584.624995,152.867185 583.523444,152.585938 582.257812,152.585938 C580.273428,152.585938 578.625007,153.281243 577.3125,154.671875 C575.999993,156.062507 575.34375,157.804677 575.34375,159.898438 C575.34375,162.039073 575.976556,163.796868 577.242188,165.171875 C578.523444,166.546882 580.15624,167.234375 582.140625,167.234375 C583.406256,167.234375 584.523433,166.96094 585.492188,166.414062 C586.429692,165.88281 587.531244,164.85157 588.796875,163.320312 L588.796875,170.28125 C586.656239,171.390631 584.515636,171.945312 582.375,171.945312 C578.843732,171.945312 575.890637,170.804699 573.515625,168.523438 C571.140613,166.226551 569.953125,163.375017 569.953125,159.96875 C569.953125,156.562483 571.156238,153.687512 573.5625,151.34375 C575.968762,148.999988 578.921857,147.828125 582.421875,147.828125 C584.671886,147.828125 586.796865,148.367182 588.796875,149.445312 Z M595.148438,131.703125 L600.421875,131.703125 L600.421875,150.359375 C602.296884,148.671867 604.367176,147.828125 606.632812,147.828125 C609.21095,147.828125 611.27343,148.664054 612.820312,150.335938 C614.132819,151.78907 614.789062,154.109359 614.789062,157.296875 L614.789062,171.289062 L609.515625,171.289062 L609.515625,157.789062 C609.515625,155.960928 609.191409,154.636723 608.542969,153.816406 C607.894528,152.99609 606.85157,152.585938 605.414062,152.585938 C603.570303,152.585938 602.273441,153.156244 601.523438,154.296875 C600.789059,155.453131 600.421875,157.437486 600.421875,160.25 L600.421875,171.289062 L595.148438,171.289062 L595.148438,131.703125 Z M626.742188,148.460938 L626.742188,171.289062 L621.46875,171.289062 L621.46875,148.460938 L626.742188,148.460938 Z M620.671875,138.96875 C620.671875,138.04687 621.007809,137.250003 621.679688,136.578125 C622.351566,135.906247 623.156245,135.570312 624.09375,135.570312 C625.04688,135.570312 625.859372,135.906247 626.53125,136.578125 C627.203128,137.234378 627.539062,138.039058 627.539062,138.992188 C627.539062,139.945317 627.203128,140.757809 626.53125,141.429688 C625.874997,142.101566 625.070317,142.4375 624.117188,142.4375 C623.164058,142.4375 622.351566,142.101566 621.679688,141.429688 C621.007809,140.757809 620.671875,139.937505 620.671875,138.96875 Z M654.210938,161.117188 L637.851562,161.117188 C637.992188,162.992197 638.601557,164.484369 639.679688,165.59375 C640.757818,166.687505 642.140617,167.234375 643.828125,167.234375 C645.140632,167.234375 646.226558,166.921878 647.085938,166.296875 C647.929692,165.671872 648.89062,164.515633 649.96875,162.828125 L654.421875,165.3125 C653.734372,166.484381 653.007816,167.488277 652.242188,168.324219 C651.476559,169.16016 650.656254,169.847654 649.78125,170.386719 C648.906246,170.925784 647.960943,171.320311 646.945312,171.570312 C645.929682,171.820314 644.828131,171.945312 643.640625,171.945312 C640.234358,171.945312 637.50001,170.851573 635.4375,168.664062 C633.37499,166.460926 632.34375,163.539081 632.34375,159.898438 C632.34375,156.289044 633.34374,153.367199 635.34375,151.132812 C637.359385,148.929676 640.031233,147.828125 643.359375,147.828125 C646.718767,147.828125 649.37499,148.898427 651.328125,151.039062 C653.265635,153.164073 654.234375,156.109356 654.234375,159.875 L654.210938,161.117188 Z M648.796875,156.804688 C648.062496,153.992173 646.289077,152.585938 643.476562,152.585938 C642.835934,152.585938 642.234378,152.683593 641.671875,152.878906 C641.109372,153.07422 640.597659,153.355467 640.136719,153.722656 C639.675779,154.089846 639.281252,154.531247 638.953125,155.046875 C638.624998,155.562503 638.375001,156.148434 638.203125,156.804688 L648.796875,156.804688 Z M661.992188,148.460938 L667.898438,161.28125 L673.78125,148.460938 L679.710938,148.460938 L667.851562,172.859375 L656.085938,148.460938 L661.992188,148.460938 Z M703.242188,161.117188 L686.882812,161.117188 C687.023438,162.992197 687.632807,164.484369 688.710938,165.59375 C689.789068,166.687505 691.171867,167.234375 692.859375,167.234375 C694.171882,167.234375 695.257808,166.921878 696.117188,166.296875 C696.960942,165.671872 697.92187,164.515633 699,162.828125 L703.453125,165.3125 C702.765622,166.484381 702.039066,167.488277 701.273438,168.324219 C700.507809,169.16016 699.687504,169.847654 698.8125,170.386719 C697.937496,170.925784 696.992193,171.320311 695.976562,171.570312 C694.960932,171.820314 693.859381,171.945312 692.671875,171.945312 C689.265608,171.945312 686.53126,170.851573 684.46875,168.664062 C682.40624,166.460926 681.375,163.539081 681.375,159.898438 C681.375,156.289044 682.37499,153.367199 684.375,151.132812 C686.390635,148.929676 689.062483,147.828125 692.390625,147.828125 C695.750017,147.828125 698.40624,148.898427 700.359375,151.039062 C702.296885,153.164073 703.265625,156.109356 703.265625,159.875 L703.242188,161.117188 Z M697.828125,156.804688 C697.093746,153.992173 695.320327,152.585938 692.507812,152.585938 C691.867184,152.585938 691.265628,152.683593 690.703125,152.878906 C690.140622,153.07422 689.628909,153.355467 689.167969,153.722656 C688.707029,154.089846 688.312502,154.531247 687.984375,155.046875 C687.656248,155.562503 687.406251,156.148434 687.234375,156.804688 L697.828125,156.804688 Z M709.007812,148.460938 L714.28125,148.460938 L714.28125,150.570312 C715.29688,149.507807 716.164059,148.789064 716.882812,148.414062 C717.648441,148.023436 718.609369,147.828125 719.765625,147.828125 C722.343763,147.828125 724.382805,148.953114 725.882812,151.203125 C727.539071,148.953114 729.781236,147.828125 732.609375,147.828125 C737.750026,147.828125 740.320312,150.945281 740.320312,157.179688 L740.320312,171.289062 L735.023438,171.289062 L735.023438,158.609375 C735.023438,156.421864 734.757815,154.875005 734.226562,153.96875 C733.679685,153.04687 732.781256,152.585938 731.53125,152.585938 C730.078118,152.585938 729.019535,153.132807 728.355469,154.226562 C727.691403,155.320318 727.359375,157.078113 727.359375,159.5 L727.359375,171.289062 L722.0625,171.289062 L722.0625,158.679688 C722.0625,154.617167 720.890637,152.585938 718.546875,152.585938 C717.062493,152.585938 715.980472,153.140619 715.300781,154.25 C714.62109,155.359381 714.28125,157.109363 714.28125,159.5 L714.28125,171.289062 L709.007812,171.289062 L709.007812,148.460938 Z M767.765625,161.117188 L751.40625,161.117188 C751.546876,162.992197 752.156245,164.484369 753.234375,165.59375 C754.312505,166.687505 755.695304,167.234375 757.382812,167.234375 C758.695319,167.234375 759.781246,166.921878 760.640625,166.296875 C761.484379,165.671872 762.445307,164.515633 763.523438,162.828125 L767.976562,165.3125 C767.289059,166.484381 766.562504,167.488277 765.796875,168.324219 C765.031246,169.16016 764.210942,169.847654 763.335938,170.386719 C762.460933,170.925784 761.51563,171.320311 760.5,171.570312 C759.48437,171.820314 758.382818,171.945312 757.195312,171.945312 C753.789045,171.945312 751.054698,170.851573 748.992188,168.664062 C746.929677,166.460926 745.898438,163.539081 745.898438,159.898438 C745.898438,156.289044 746.898428,153.367199 748.898438,151.132812 C750.914073,148.929676 753.585921,147.828125 756.914062,147.828125 C760.273454,147.828125 762.929678,148.898427 764.882812,151.039062 C766.820322,153.164073 767.789062,156.109356 767.789062,159.875 L767.765625,161.117188 Z M762.351562,156.804688 C761.617184,153.992173 759.843764,152.585938 757.03125,152.585938 C756.390622,152.585938 755.789065,152.683593 755.226562,152.878906 C754.66406,153.07422 754.152346,153.355467 753.691406,153.722656 C753.230466,154.089846 752.835939,154.531247 752.507812,155.046875 C752.179686,155.562503 751.929688,156.148434 751.757812,156.804688 L762.351562,156.804688 Z M773.53125,148.460938 L778.828125,148.460938 L778.828125,150.570312 C780.671884,148.742178 782.749988,147.828125 785.0625,147.828125 C787.718763,147.828125 789.789055,148.664054 791.273438,150.335938 C792.554694,151.75782 793.195312,154.078109 793.195312,157.296875 L793.195312,171.289062 L787.898438,171.289062 L787.898438,158.539062 C787.898438,156.289051 787.585941,154.734379 786.960938,153.875 C786.351559,152.999996 785.242196,152.5625 783.632812,152.5625 C781.882804,152.5625 780.640629,153.140619 779.90625,154.296875 C779.187496,155.437506 778.828125,157.429673 778.828125,160.273438 L778.828125,171.289062 L773.53125,171.289062 L773.53125,148.460938 Z M805.289062,153.382812 L805.289062,171.289062 L800.015625,171.289062 L800.015625,153.382812 L797.765625,153.382812 L797.765625,148.460938 L800.015625,148.460938 L800.015625,140.09375 L805.289062,140.09375 L805.289062,148.460938 L809.390625,148.460938 L809.390625,153.382812 L805.289062,153.382812 Z" id="Certificate-of-Achie" fill="#9B9B9B"></path>
        <path d="M189.5,280.5 L879.5,280.5" id="Line" stroke="#C5C4C4" stroke-width="9" stroke-linecap="square" fill-rule="nonzero"></path>
        <path d="M189.5,330.5 L879.5,330.5" id="Line" stroke="#C5C4C4" stroke-width="9" stroke-linecap="square" fill-rule="nonzero"></path>
        <path d="M189.5,380.5 L879.5,380.5" id="Line" stroke="#C5C4C4" stroke-width="9" stroke-linecap="square" fill-rule="nonzero"></path>
        <path d="M189.5,430.5 L592.5,430.5" id="Line" stroke="#C5C4C4" stroke-width="9" stroke-linecap="square" fill-rule="nonzero"></path>
        <g id="if_General_Office_06_2530838" transform="translate(783.000000, 479.000000)" fill-rule="nonzero">
            <g id="Group" transform="translate(87.000000, 83.000000)">
                <polyline id="Shape" fill="#F1F1F1" points="4.82045455 36.2592558 35.3659091 76.7214884 47.4867273 47.5333023 78.9046364 43.9195814 49.9570909 5.56455814"></polyline>
                <path d="M35.3659091,81.511814 C33.873,81.511814 32.4507273,80.8157674 31.5362727,79.6048372 L0.990818182,39.1445116 C-0.605181818,37.0315814 -0.183272727,34.026186 1.932,32.4319535 C4.04727273,30.835814 7.05409091,31.2610698 8.65009091,33.374 L34.1479091,67.1484651 L43.0557273,45.6949767 C43.722,44.0893023 45.2072727,42.969907 46.9369091,42.7715814 L70.0273636,40.1151628 L46.1255455,8.44981395 C44.5295455,6.33497674 44.9533636,3.33148837 47.0667273,1.73725581 C49.182,0.143023256 52.1907273,0.566372093 53.7848182,2.67930233 L82.7323636,41.0324186 C83.769,42.4054419 83.9885455,44.2266047 83.3127273,45.8055814 C82.635,47.3845581 81.1611818,48.4791628 79.4525455,48.6774884 L50.8371818,51.9689302 L39.7969091,78.554093 C39.1382727,80.1426047 37.6797273,81.2562791 35.973,81.4717674 C35.7687273,81.5003721 35.5663636,81.511814 35.3659091,81.511814 Z" id="Shape" fill="#9B9B9B"></path>
            </g>
            <g id="Group" transform="translate(0.000000, 83.000000)">
                <polyline id="Shape" fill="#F1F1F1" points="79.0449778 36.2592558 48.4786667 76.7214884 36.3354667 47.5333023 4.89004444 43.9195814 33.6006667 5.30711628"></polyline>
                <path d="M48.4786667,81.511814 C48.2799111,81.511814 48.0773333,81.5003721 47.8747556,81.4736744 C46.1662222,81.258186 44.7061333,80.1445116 44.0448889,78.557907 L32.9852889,51.9708372 L4.34155556,48.6793953 C2.63684444,48.4829767 1.1672,47.394093 0.483022222,45.8246512 C-0.197333333,44.2552093 0.0109777778,42.4397674 1.03342222,41.0648372 L29.7440444,2.45046512 C31.3226222,0.326093023 34.3268889,-0.120139535 36.4616,1.45883721 C38.5905778,3.034 39.0377778,6.0355814 37.4572889,8.15995349 L13.7021778,40.1094419 L36.8839556,42.7715814 C38.6154222,42.969907 40.1022667,44.0893023 40.7692444,45.6949767 L49.6941333,67.1484651 L75.2112889,33.374 C76.8051556,31.2610698 79.8151556,30.8377209 81.9364889,32.4319535 C84.0520889,34.026186 84.4763556,37.0277674 82.8786667,39.1426047 L52.3123556,79.6048372 C51.3988444,80.8157674 49.9731556,81.511814 48.4786667,81.511814 Z" id="Shape" fill="#9B9B9B"></path>
            </g>
            <g id="Group" transform="translate(23.000000, 0.000000)">
                <path d="M119,62.0047738 C119,93.4850505 93.4812315,119 62.0047738,119 C30.5264066,119 5,93.4850505 5,62.0047738 C5,30.516859 30.5244971,5 62.0047738,5 C93.4812315,5 119,30.516859 119,62.0047738 Z" id="Shape" fill="#EBEBEB"></path>
                <path d="M62.0047895,124 C27.8154654,124 0,96.1892255 0,62.0047893 C0,27.8165217 27.8173812,0 62.0047895,0 C96.190282,0 124,27.8165217 124,62.0047893 C124,96.1911413 96.190282,124 62.0047895,124 Z M62.0047895,9.62850124 C33.1241406,9.62850124 9.62688297,33.1250328 9.62688297,62.0047893 C9.62688297,90.8807144 33.1241406,114.371499 62.0047895,114.371499 C90.879691,114.371499 114.373117,90.8787986 114.373117,62.0047893 C114.373117,33.1250328 90.879691,9.62850124 62.0047895,9.62850124 Z" id="Shape" fill="#9B9B9B"></path>
            </g>
            <path d="M84.9990487,99 C64.5968683,99 48,82.4037542 48,62.0038056 C48,41.6000514 64.598771,25 84.9990487,25 C105.399326,25 122,41.6000514 122,62.0038056 C122,82.405657 105.401229,99 84.9990487,99 Z M84.9990487,34.5634868 C69.8691281,34.5634868 57.5608464,46.8746207 57.5608464,62.0057084 C57.5608464,77.1329905 69.8691281,89.438416 84.9990487,89.438416 C100.128969,89.438416 112.439154,77.1310877 112.439154,62.0057084 C112.439154,46.8727179 100.128969,34.5634868 84.9990487,34.5634868 Z" id="Shape" fill="#9B9B9B"></path>
        </g>
    </g>
</svg>