<?xml version="1.0" encoding="UTF-8"?>
<svg width="28px" height="28px" viewBox="0 0 28 28" version="1.1" xmlns="http://www.w3.org/2000/svg" xmlns:xlink="http://www.w3.org/1999/xlink">
    <!-- Generator: Sketch 51.3 (57544) - http://www.bohemiancoding.com/sketch -->
    <title>Untitled</title>
    <desc>Created with Sketch.</desc>
    <defs></defs>
    <g id="Page-1" stroke="none" stroke-width="1" fill="none" fill-rule="evenodd">
        <g id="iconfinder_89_Compass_183402" fill-rule="nonzero">
            <path d="M16.8284271,16.8284271 C15.0606603,18.5961942 6.22182541,21.7781746 6.22182541,21.7781746 C6.22182541,21.7781746 9.4038059,12.9393398 11.1715729,11.1715729 C12.9393399,9.403806 21.7781746,6.22182541 21.7781746,6.22182541 C21.7781746,6.22182541 18.596194,15.0606601 16.8284271,16.8284271 Z" id="Oval-278-path" fill="#000000"></path>
            <path d="M16.8284271,16.8284271 C15.0606603,18.5961942 6.22182541,21.7781746 6.22182541,21.7781746 C6.22182541,21.7781746 9.4038059,12.9393398 11.1715729,11.1715729 L16.8284271,16.8284271 Z" id="Oval-278-path" fill="#787676"></path>
            <path d="M14,28 C6.26801312,28 0,21.7319869 0,14 C0,6.26801312 6.26801312,0 14,0 C21.7319869,0 28,6.26801312 28,14 C28,21.7319869 21.7319869,28 14,28 Z M14,26 C20.6274173,26 26,20.6274173 26,14 C26,7.37258267 20.6274173,2 14,2 C7.37258267,2 2,7.37258267 2,14 C2,20.6274173 7.37258267,26 14,26 Z" id="Oval-278" fill="#000000"></path>
            <path d="M12.5857865,15.4142137 C13.3668351,16.1952622 14.633165,16.1952622 15.4142137,15.4142137 C16.1952622,14.633165 16.1952622,13.3668351 15.4142137,12.5857865 C14.633165,11.8047379 13.3668351,11.8047379 12.5857865,12.5857865 C11.8047379,13.3668351 11.8047379,14.633165 12.5857865,15.4142137 Z" id="Oval-278-path" stroke="#979797" fill="#FFFFFF"></path>
        </g>
    </g>
</svg>