<?xml version="1.0" encoding="UTF-8"?>
<svg width="65px" height="80px" viewBox="0 0 65 80" version="1.1" xmlns="http://www.w3.org/2000/svg" xmlns:xlink="http://www.w3.org/1999/xlink">
    <!-- Generator: Sketch 52.6 (67491) - http://www.bohemiancoding.com/sketch -->
    <title>guide</title>
    <desc>Created with Sketch.</desc>
    <g id="Page-1" stroke="none" stroke-width="1" fill="none" fill-rule="evenodd">
        <g id="Group">
            <path d="M7.09678506,0.5 L0.980898917,6.18803631 L7.35510071,73.5 L62,73.5 C63.3807119,73.5 64.5,72.3807119 64.5,71 L64.5,3 C64.5,1.61928813 63.3807119,0.5 62,0.5 L7.09678506,0.5 Z" id="Rectangle" stroke="#16273B" fill="#2F4660" fill-rule="nonzero"></path>
            <polygon id="Path-2" fill="#FFFFFF" fill-rule="nonzero" points="5.52741089 6.51481934 8.55352173 3.73186646 61.9105591 3.73186646 61.9105591 72.1393799 59 76.1334717 5.52741089 76.1334717"></polygon>
            <path d="M0.5,6.5 L0.5,79.5 L56,79.5 C57.3807119,79.5 58.5,78.3807119 58.5,77 L58.5,9 C58.5,7.61928813 57.3807119,6.5 56,6.5 L0.5,6.5 Z" id="Rectangle" stroke="#16273B" fill="#2F4660" fill-rule="nonzero"></path>
            <text id="GUIDE" fill="#FFFFFF" font-family="Arial-BoldMT, Arial" font-size="12" font-weight="bold">
                <tspan x="12" y="46">GUIDE</tspan>
            </text>
            <path d="M39,6 L39,18.0193553 C39,18.5716401 39.4477153,19.0193553 40,19.0193553 C40.1904764,19.0193553 40.376991,18.9649552 40.5376006,18.8625549 L44.6782741,16.2225766 C45.3368737,15.8026718 46.1796582,15.8045895 46.83634,16.2274871 L50.9089547,18.8502168 C51.373285,19.1492416 51.9921065,19.0152351 52.2911313,18.5509048 C52.3950997,18.3894612 52.450387,18.2014971 52.450387,18.0094725 L52.450387,6 C52.7937601,6 51.8246217,6 49.5429719,6 C47.2613221,6 43.7469981,6 39,6 Z" id="Path-3" fill="#C71B1B" fill-rule="nonzero"></path>
            <path d="" id="Path" stroke="#979797" fill-rule="nonzero"></path>
        </g>
    </g>
</svg>