<?xml version="1.0" encoding="UTF-8"?>
<svg width="6px" height="14px" viewBox="0 0 6 14" version="1.1" xmlns="http://www.w3.org/2000/svg">
	<g id="Page-1" stroke="none" stroke-width="1" fill="none" fill-rule="evenodd">
		<g id="half_paperclip" fill="#ccc">
			<path d="M0.5,3 C0.5,1.61928813 1.61928813,0.5 3,0.5 C4.38071187,0.5 5.5,1.61928813 5.5,3 L5.5,12 C5.5,12.8284271 4.82842712,13.5 4,13.5 C3.17157288,13.5 2.5,12.8284271 2.5,12 L2.5,5 C2.5,4.72385763 2.72385763,4.5 3,4.5 C3.27614237,4.5 3.5,4.72385763 3.5,5 L3.5,12 C3.5,12.2761424 3.72385763,12.5 4,12.5 C4.27614237,12.5 4.5,12.2761424 4.5,12 L4.5,3 C4.50000001,2.46410161 4.21410163,1.96891107 3.75000001,1.70096187 C3.28589839,1.43301267 2.71410161,1.43301267 2.24999999,1.70096187 C1.78589837,1.96891107 1.49999999,2.46410161 1.5,3 L1.5,3.86832564 C1.5,4.28903763 0.5,5.42071199 0.5,5 L0.5,3 Z"
			      id="Path"></path>
		</g>
	</g>
</svg>
