<?xml version="1.0" encoding="UTF-8"?>
<svg width="100px" height="115px" viewBox="0 0 100 115" version="1.1" xmlns="http://www.w3.org/2000/svg" xmlns:xlink="http://www.w3.org/1999/xlink">
    <!-- Generator: Sketch 52.6 (67491) - http://www.bohemiancoding.com/sketch -->
    <title>jupyter_icon</title>
    <desc>Created with Sketch.</desc>
    <g id="Page-1" stroke="none" stroke-width="1" fill="none" fill-rule="evenodd">
        <g id="jupyter">
            <g id="Group" transform="translate(0.000000, 42.181818)" fill="#4E4E4E">
                <path d="M5.19313636,17.8075682 C5.19313636,21.3485227 4.90986364,22.5018636 4.18143182,23.3516818 C3.370725,24.0817045 2.31823636,24.4854091 1.22727273,24.4847955 L1.51055,26.5081818 C3.20190909,26.5310455 4.84306818,25.9335909 6.12390909,24.8287727 C6.81306818,23.9883409 7.32590909,23.01775 7.63181818,21.9748409 C7.93775,20.9319318 8.03047727,19.8380909 7.9045,18.7585682 L7.9045,5.36363636 L5.19313636,5.36363636 L5.19313636,17.7266364 L5.19313636,17.8075682 Z" id="Path"></path>
                <path d="M25.4137273,16.2115682 C25.4137273,17.7291136 25.4137273,19.0847955 25.5351136,20.2583636 L23.1272727,20.2583636 L22.9654091,17.8505227 C22.4617727,18.7024773 21.7415227,19.4058636 20.8779091,19.8892045 C20.0142727,20.3725455 19.0380682,20.6186136 18.0485227,20.6023409 C15.7013864,20.6023409 12.9090909,19.3276136 12.9090909,14.1274545 L12.9090909,5.48753386 L15.6204545,5.48753386 L15.6204545,13.5811364 C15.6204545,16.3936818 16.4905227,18.2754318 18.9388409,18.2754318 C19.4425455,18.2808636 19.94225,18.1856364 20.4086818,17.9953636 C20.8751136,17.8050909 21.2988409,17.5236136 21.6550455,17.1674091 C22.0112273,16.8112273 22.2927273,16.3874773 22.483,15.9210682 C22.67325,15.4546364 22.7684773,14.9549091 22.7630682,14.4512045 L22.7630682,5.38636364 L25.4744091,5.38636364 L25.4744091,16.1306364 L25.4137273,16.2115682 Z" id="Path"></path>
                <path d="M30.5532223,10.3014545 C30.5532223,8.41968182 30.5532223,6.8819 30.4318182,5.48575227 L32.8599091,5.48575227 L32.9812955,8.015 C33.5222727,7.10121591 34.3010682,6.35135 35.2346591,5.84535 C36.1682727,5.33935114 37.2216818,5.096185 38.2826136,5.14177489 C41.8842727,5.14177489 44.5956364,8.15663636 44.5956364,12.6485909 C44.5956364,17.9499091 41.3379545,20.5803409 37.8172273,20.5803409 C36.9161136,20.6205455 36.0198636,20.4275 35.2152045,20.0198636 C34.4105455,19.6122045 33.7247273,19.0037727 33.2241136,18.2534318 L33.2241136,26.3470227 L30.5532223,26.3470227 L30.5532223,10.3621591 L30.5532223,10.3014545 Z M33.2241136,14.2470909 C33.2314545,14.6142273 33.2720909,14.9799318 33.3455227,15.3397273 C33.5750909,16.2381591 34.0977045,17.0343864 34.8306364,17.6024091 C35.5635909,18.1704545 36.4650227,18.4778636 37.3923182,18.476 C40.2453182,18.476 41.92475,16.1490909 41.92475,12.77 C41.92475,9.81584091 40.3465,7.28658182 37.4935,7.28658182 C36.3644545,7.37903864 35.3079091,7.88013636 34.5219318,8.69590909 C33.7359545,9.51168182 33.2745227,10.5861364 33.2241136,11.7178409 L33.2241136,14.2470909 Z" id="Shape" fill-rule="nonzero"></path>
                <path d="M49.4264545,5.47228614 L52.6841364,14.1931591 C53.0281136,15.1643864 53.3923182,16.3379545 53.6351364,17.2080227 C53.9184091,16.3177273 54.2219091,15.1846136 54.5861364,14.1324545 L57.5402955,5.47228614 L60.3932955,5.47228614 L56.3465,15.9939773 C54.3230909,21.0524773 53.0888182,23.6626818 51.2272727,25.2409318 C50.2896591,26.0973409 49.1465455,26.6967727 47.9089023,26.9810455 L47.2411795,24.7148409 C48.1065591,24.4305 48.9099545,23.9841818 49.6085682,23.3996364 C50.5956818,22.5951818 51.3790455,21.5691818 51.895,20.405 C52.0054318,20.2033864 52.0807045,19.9844091 52.1175682,19.7575 C52.0945682,19.5133182 52.0331136,19.2743182 51.9354773,19.0493182 L46.4318182,5.43181818 L49.3859773,5.43181818 L49.4264545,5.47228614 Z" id="Path"></path>
                <path d="M67.5912045,1.22727273 L67.5912045,5.47640909 L71.4761364,5.47640909 L71.4761364,7.49981818 L67.5912045,7.49981818 L67.5912045,15.4720227 C67.5912045,17.2930909 68.1172955,18.34525 69.6146136,18.34525 C70.1464091,18.3539545 70.6770227,18.2927273 71.1928636,18.1631591 L71.3142727,20.1865455 C70.5407727,20.4545227 69.7245682,20.5779773 68.9064091,20.5507727 C68.3645909,20.5846818 67.8218409,20.5009773 67.3154091,20.3053864 C66.8089773,20.1097955 66.3508636,19.8069545 65.9724773,19.4176591 C65.1482955,18.3152955 64.7723318,16.9416136 64.9203182,15.5732045 L64.9203182,7.47959091 L62.6136364,7.47959091 L62.6136364,5.45618182 L64.9607727,5.45618182 L64.9607727,1.85452727 L67.5912045,1.22727273 Z" id="Path"></path>
                <path d="M76.4708182,13.3386136 C76.4159091,14.0248409 76.5106364,14.7147955 76.7484773,15.3608182 C76.9863182,16.0068409 77.3615909,16.5935 77.8483864,17.0802727 C78.3351591,17.5670682 78.9218182,17.9423409 79.5678409,18.1801818 C80.2138636,18.4180227 80.9038182,18.51275 81.5900455,18.4578409 C82.9780227,18.4888864 84.3569545,18.2268864 85.6368409,17.6889318 L86.1022273,19.7123409 C84.5316591,20.3592955 82.8428409,20.6695 81.1448864,20.6228636 C80.1550227,20.6906364 79.1622273,20.5435 78.2345909,20.1915227 C77.3069318,19.8395682 76.4664091,19.2911136 75.7706159,18.5838182 C75.0748364,17.8765 74.5402795,17.0270455 74.2036159,16.09375 C73.8669509,15.1604318 73.736145,14.1653636 73.82017,13.17675 C73.82017,8.72527273 76.4708182,5.20454545 80.8009091,5.20454545 C85.6570682,5.20454545 86.8711136,9.45368182 86.8711136,12.1650455 C86.8970682,12.5828182 86.8970682,13.0017955 86.8711136,13.4195682 L76.4101364,13.4195682 L76.4708182,13.3386136 Z M84.4025682,11.3152273 C84.4806591,10.77425 84.4418864,10.2228409 84.2888409,9.69813636 C84.1358182,9.17343182 83.8720909,8.68761364 83.5154545,8.27343182 C83.1587955,7.85927273 82.7175227,7.52636364 82.2213409,7.29714545 C81.7251591,7.06793182 81.1855909,6.94774091 80.6390455,6.94467273 C79.5272955,7.02514545 78.4857045,7.51790909 77.7183864,8.32640909 C76.9510682,9.13488636 76.5133636,10.2007955 76.4910682,11.3152273 L84.4025682,11.3152273 Z" id="Shape" fill-rule="nonzero"></path>
                <path d="M90.9850405,10.0733636 C90.9850405,8.33325 90.9850405,6.83592273 90.8636364,5.46000909 L93.2917273,5.46000909 L93.2917273,8.35347727 L93.4131136,8.35347727 C93.6679773,7.46043182 94.1945455,6.66889545 94.9197273,6.08874773 C95.6449091,5.50859773 96.5327273,5.16862727 97.4599318,5.11603136 C97.7151364,5.08253502 97.9736136,5.08253502 98.2288182,5.11603136 L98.2288182,7.64529545 C97.9195909,7.60947727 97.6072727,7.60947727 97.2980455,7.64529545 C96.3795455,7.68086364 95.5053864,8.04959091 94.8388636,8.68261364 C94.1723409,9.31561364 93.7590455,10.1695909 93.6761591,11.0850682 C93.6005,11.4990909 93.5598864,11.91875 93.5547727,12.3395682 L93.5547727,20.2106136 L90.8838704,20.2106136 L90.8838704,10.0935909 L90.9850405,10.0733636 Z" id="Path"></path>
            </g>
            <path d="M89.7967955,7.01284091 C89.8798864,8.37218182 89.5564773,9.72547727 88.8677273,10.9003409 C88.1789773,12.0752273 87.1561136,13.0184773 85.9293864,13.6099773 C84.7026591,14.2014545 83.3276364,14.4143864 81.9794773,14.2216591 C80.6313182,14.0289091 79.3710455,13.4392273 78.3592,12.5277045 C77.3473568,11.6162045 76.62975,10.4241136 76.297797,9.10331818 C75.9658439,7.78252273 76.0345702,6.39279545 76.4952205,5.11120455 C76.9558705,3.82961364 77.7875932,2.71413864 78.8844318,1.90690227 C79.9812727,1.09966591 81.2935909,0.637201364 82.6541818,0.578421432 C83.54625,0.529333636 84.4392273,0.657078182 85.2817273,0.954309091 C86.12425,1.25153864 86.8997045,1.71239318 87.5635,2.31036591 C88.2272727,2.90834091 88.7663182,3.63163636 89.1495909,4.43865909 C89.5328636,5.24568182 89.7528182,6.12052273 89.7967955,7.01284091 Z" id="Path" fill="#767677"></path>
            <path d="M49.7868182,86.2554091 C31.5763636,86.2554091 15.5711591,79.7198182 7.29545455,70.0681818 C10.5064545,78.7509318 16.3003409,86.2415909 23.89725,91.5319091 C31.4940909,96.8222727 40.5295455,99.6581818 49.7868182,99.6581818 C59.0443182,99.6581818 68.0795455,96.8222727 75.6765909,91.5319091 C83.2734091,86.2415909 89.0672727,78.7509318 92.2784091,70.0681818 C84.0229545,79.7198182 68.0784091,86.2554091 49.7868182,86.2554091 Z" id="Path" fill="#333333"></path>
            <path d="M49.7868182,23.49375 C67.9975,23.49375 84.0027273,30.0293409 92.2784091,39.6809091 C89.0672727,30.9982273 83.2734091,23.5075682 75.6765909,18.21725 C68.0795455,12.9269318 59.0443182,10.0909091 49.7868182,10.0909091 C40.5295455,10.0909091 31.4940909,12.9269318 23.89725,18.21725 C16.3003409,23.5075682 10.5064545,30.9982273 7.29545455,39.6809091 C15.5711591,30.0091136 31.4954545,23.49375 49.7868182,23.49375 Z" id="Path" fill="#333333"></path>
            <path d="M24.7176364,105.037636 C24.8244545,106.749818 24.4191364,108.455045 23.5533409,109.936045 C22.6875227,111.417045 21.4004318,112.606773 19.8560455,113.353659 C18.3116591,114.100545 16.5798864,114.370773 14.8813864,114.129909 C13.1828636,113.889023 11.5945,113.147977 10.3186591,112.001159 C9.04281591,110.854341 8.13725909,109.353659 7.71735682,107.690341 C7.29745659,106.027 7.38222295,104.276341 7.96085682,102.661341 C8.53949091,101.046364 9.58579545,99.6402045 10.9664545,98.6220114 C12.3471364,97.6038136 13.9996591,97.0196807 15.7135,96.9440361 C16.8362045,96.8839839 17.95975,97.0457211 19.0199545,97.4200068 C20.0801364,97.7942955 21.0562045,98.3737955 21.8923636,99.1254068 C22.7285227,99.8770227 23.4084318,100.786 23.8931818,101.800455 C24.3779545,102.814886 24.6581136,103.914909 24.7176364,105.037636 Z" id="Path" fill="#9E9E9E"></path>
            <path d="M9.36502273,21.2941591 C8.38377273,21.32125 7.41640909,21.0576136 6.58459091,20.5364091 C5.75278182,20.0151818 5.09365,19.2596364 4.69009318,18.3648182 C4.28653682,17.4699773 4.15657318,16.4757955 4.31654636,15.5072955 C4.47651955,14.5387955 4.91928636,13.6392045 5.58916591,12.9216864 C6.25904773,12.2041591 7.12613636,11.7007182 8.08138636,11.4746766 C9.03661364,11.2486352 10.0373636,11.3100859 10.9577955,11.6513 C11.8782045,11.9925159 12.6771818,12.5982591 13.2542273,13.3923545 C13.8312955,14.1864545 14.1606818,15.1334545 14.2009545,16.11425 C14.2392955,17.4404545 13.7529773,18.7282727 12.8475682,19.6980682 C11.9421591,20.6678864 10.6907273,21.2414318 9.36502273,21.2941591 Z" id="Path" fill="#616262"></path>
        </g>
    </g>
</svg>