<?xml version="1.0" encoding="UTF-8"?>
<svg width="100px" height="125px" viewBox="0 0 100 125" version="1.1" xmlns="http://www.w3.org/2000/svg" xmlns:xlink="http://www.w3.org/1999/xlink">
    <!-- Generator: Sketch 52.6 (67491) - http://www.bohemiancoding.com/sketch -->
    <title>jupyter_document_icon</title>
    <desc>Created with Sketch.</desc>
    <defs>
        <linearGradient x1="50%" y1="0%" x2="50%" y2="100%" id="linearGradient-1">
            <stop stop-color="#F7F7F6" offset="0%"></stop>
            <stop stop-color="#F7F7F7" offset="100%"></stop>
            <stop stop-color="#429321" offset="100%"></stop>
        </linearGradient>
    </defs>
    <g id="Page-1" stroke="none" stroke-width="1" fill="none" fill-rule="evenodd">
        <g id="Group-2">
            <path d="M98.3384952,31.8337282 L68.4467112,1 L8,1 C4.13400675,1 1,4.13400675 1,8 L1,116.285714 C1,120.151708 4.13400675,123.285714 8,123.285714 L91.3384952,123.285714 C95.2044884,123.285714 98.3384952,120.151708 98.3384952,116.285714 L98.3384952,31.8337282 Z" id="Rectangle" stroke="#C4C3C3" stroke-width="2" fill="url(#linearGradient-1)" fill-rule="nonzero"></path>
            <g id="jupyter" transform="translate(19.000000, 34.714286)">
                <g id="Group" transform="translate(0.000000, 25.714286)" fill="#4E4E4E">
                    <path d="M2.50610191,9.23492758 C2.50610191,11.180507 2.33679897,11.8142108 1.90143884,12.2811438 C1.41690561,12.6822552 0.787867212,12.9040709 0.135833556,12.9037338 L0.305139213,14.0154845 C1.31600981,14.028047 2.29687748,13.6997752 3.06239465,13.0927323 C3.47428273,12.6309565 3.78079115,12.0976648 3.96362311,11.5246379 C4.14646866,10.9516109 4.20188875,10.3505994 4.12659621,9.75745505 L4.12659621,2.3976024 L2.50610191,2.3976024 L2.50610191,9.19045956 L2.50610191,9.23492758 Z" id="Path"></path>
                    <path d="M14.5912947,8.35800451 C14.5912947,9.19182066 14.5912947,9.93670082 14.6638434,10.5815185 L13.2247548,10.5815185 L13.1280142,9.25852896 C12.827007,9.72663588 12.3965369,10.1131119 11.880383,10.3786838 C11.3642155,10.6442558 10.7807696,10.779458 10.1893503,10.770517 C8.78654289,10.770517 7.11767823,10.0701174 7.11767823,7.21288709 L7.11767823,2.46567795 L8.73817251,2.46567795 L8.73817251,6.91271231 C8.73817251,8.45806692 9.25818412,9.49199549 10.7214647,9.49199549 C11.0225126,9.49498 11.3211698,9.44265736 11.599941,9.33811187 C11.8787122,9.23356643 12.1319603,9.07890857 12.3448523,8.88319181 C12.5577306,8.68748753 12.725974,8.45465786 12.8396939,8.19838912 C12.9534001,7.94210791 13.0103144,7.66753247 13.0070816,7.3907717 L13.0070816,2.41008991 L14.6275623,2.41008991 L14.6275623,8.31353648 L14.5912947,8.35800451 Z" id="Path"></path>
                    <path d="M17.6630046,5.11068929 C17.6630046,4.07674825 17.6630046,3.23181319 17.5904453,2.46469905 L19.0416366,2.46469905 L19.1141854,3.8543956 C19.4375099,3.35231643 19.9029708,2.9403022 20.4609479,2.66228022 C21.0189385,2.38425887 21.648527,2.2506511 22.2826116,2.27570049 C24.4352067,2.27570049 26.0557011,3.93221778 26.0557011,6.40032467 C26.0557011,9.31313687 24.10869,10.7584291 22.0044653,10.7584291 C21.4658988,10.7805195 20.9302392,10.6744505 20.4493205,10.4504745 C19.9684018,10.226486 19.5585105,9.8921828 19.2593099,9.47990758 L19.2593099,13.9269355 L17.6630046,13.9269355 L17.6630046,5.14404346 L17.6630046,5.11068929 Z M19.2593099,7.27862137 C19.2636973,7.48034467 19.2879844,7.68128121 19.3318722,7.87897104 C19.4690777,8.37261489 19.7814269,8.81010242 20.2194766,9.1222028 C20.6575398,9.43431566 21.1962964,9.60322176 21.7505109,9.6021978 C23.4556567,9.6021978 24.4593987,8.32367632 24.4593987,6.46703297 C24.4593987,4.84386863 23.5161297,3.45416584 21.810984,3.45416584 C21.13619,3.50496629 20.504727,3.7802947 20.0349738,4.22852148 C19.5652206,4.67674825 19.2894378,5.26710791 19.2593099,5.88892357 L19.2593099,7.27862137 Z" id="Shape" fill-rule="nonzero"></path>
                    <path d="M28.9429247,2.45730008 L30.8899357,7.24898852 C31.0955198,7.78262989 31.3131931,8.42744753 31.4583177,8.90550698 C31.6276206,8.41633368 31.8090127,7.79374374 32.0266996,7.21563434 L33.7923049,2.45730008 L35.4974507,2.45730008 L33.078812,8.23844907 C31.8694858,11.0178447 31.131801,12.452023 30.0192155,13.3191933 C29.4588342,13.7897477 28.7756322,14.1191059 28.0359329,14.2752997 L27.6368566,13.0301324 C28.1540659,12.8739011 28.6342294,12.6286713 29.0517682,12.3074925 C29.641734,11.8654845 30.1099252,11.3017482 30.4182945,10.6620879 C30.484296,10.5513112 30.529284,10.430994 30.5513163,10.3063187 C30.5375699,10.1721529 30.5008405,10.0408342 30.4424864,9.9172078 L27.1531275,2.43506493 L28.9187328,2.43506493 L28.9429247,2.45730008 Z" id="Path"></path>
                    <path d="M39.7994079,0.124875126 L39.7994079,2.45956543 L42.121306,2.45956543 L42.121306,3.57132867 L39.7994079,3.57132867 L39.7994079,7.95166082 C39.7994079,8.95224775 40.1138355,9.53035714 41.0087341,9.53035714 C41.326571,9.53513984 41.6437016,9.50149852 41.952003,9.4303072 L42.0245653,10.542058 C41.5622694,10.6892982 41.0744504,10.7571304 40.5854632,10.7421828 C40.261636,10.7608142 39.9372518,10.7148227 39.634574,10.6073552 C39.3318961,10.4998876 39.0580963,10.3334915 38.8319471,10.1195929 C38.3393603,9.51389863 38.1146589,8.75912835 38.2031056,8.00725522 L38.2031056,3.56021479 L36.8244766,3.56021479 L36.8244766,2.44845155 L38.227284,2.44845155 L38.227284,0.469520478 L39.7994079,0.124875126 Z" id="Path"></path>
                    <path d="M45.1064657,6.77945802 C45.0736483,7.15650599 45.1302637,7.53560192 45.2724135,7.89055945 C45.4145634,8.24551698 45.6388517,8.56785714 45.9297936,8.83531467 C46.2207219,9.10278473 46.5713491,9.30897852 46.9574559,9.43966033 C47.3435628,9.57034214 47.7559263,9.62239011 48.1660622,9.59222027 C48.9956112,9.60927824 49.8197541,9.4653222 50.5847008,9.16974275 L50.8628472,10.281506 C49.9241694,10.6369755 48.9148174,10.8074176 47.900005,10.7817932 C47.3083955,10.819031 46.7150338,10.7381868 46.1606156,10.5447927 C45.6061837,10.3514111 45.1038305,10.0500624 44.6879774,9.66143857 C44.2721325,9.2728022 43.9526452,8.80606896 43.7514322,8.29326923 C43.5502185,7.78045703 43.47204,7.23371626 43.522259,6.69052198 C43.522259,4.24465535 45.1064657,2.31018981 47.6944209,2.31018981 C50.59679,2.31018981 51.3223857,4.64488012 51.3223857,6.13464038 C51.3378979,6.36418582 51.3378979,6.59439313 51.3223857,6.82393857 L45.0701981,6.82393857 L45.1064657,6.77945802 Z M49.847016,5.66770731 C49.8936884,5.37046703 49.8705152,5.067495 49.7790449,4.7791958 C49.6875881,4.4908966 49.5299669,4.22396354 49.3168168,3.99639111 C49.1036533,3.76883117 48.8399188,3.58591409 48.543367,3.45997003 C48.2468152,3.33402847 47.9243328,3.26798951 47.5976803,3.2663037 C46.9332233,3.31051948 46.310698,3.58126873 45.8520968,4.0254995 C45.3934956,4.46971778 45.1318937,5.05538214 45.1185685,5.66770731 L49.847016,5.66770731 Z" id="Shape" fill-rule="nonzero"></path>
                    <path d="M53.7811467,4.98536462 C53.7811467,4.02925824 53.7811467,3.20655095 53.7085874,2.45055445 L55.1597787,2.45055445 L55.1597787,4.04037213 L55.2323274,4.04037213 C55.3846512,3.54968781 55.6993639,3.11477772 56.1327816,2.79601524 C56.5661993,2.4772515 57.0968195,2.29045454 57.6509796,2.26155569 C57.8035072,2.24315111 57.9579906,2.24315111 58.1105182,2.26155569 L58.1105182,3.65126124 C57.925703,3.63158092 57.7390405,3.63158092 57.5542254,3.65126124 C57.0052677,3.6708042 56.4828111,3.8734016 56.084452,4.22121629 C55.686093,4.56901848 55.4390797,5.03823676 55.3895412,5.54124626 C55.3443222,5.76873126 55.3200487,5.99931319 55.3169924,6.23053198 L55.3169924,10.5552822 L53.7206806,10.5552822 L53.7206806,4.99647852 L53.7811467,4.98536462 Z" id="Path"></path>
                </g>
                <path d="M52.8504874,2.68366366 C52.8937501,3.24971591 52.7253617,3.81325074 52.3667524,4.30248357 C52.008143,4.79172588 51.4755717,5.18451093 50.8368554,5.43082141 C50.1981391,5.67712239 49.4822103,5.76579079 48.7802684,5.68553593 C48.0783266,5.60527161 47.4221442,5.35971826 46.8953098,4.98014495 C46.3684765,4.60058113 45.9948423,4.10417457 45.8220054,3.5541733 C45.6491684,3.00417202 45.6849519,2.42546638 45.9247973,1.89179053 C46.1646425,1.35811467 46.597693,0.893612259 47.1687806,0.557465555 C47.7398694,0.221318856 48.42315,0.028740897 49.1315647,0.00426395187 C49.5960351,-0.016177026 50.0609789,0.0370179359 50.4996408,0.160789849 C50.9383145,0.284561197 51.342068,0.476468722 51.6876843,0.725474552 C52.0332888,0.974481326 52.313952,1.27567363 52.5135094,1.61173137 C52.7130668,1.94778911 52.8275899,2.31208747 52.8504874,2.68366366 Z" id="Path" fill="#767677"></path>
                <path d="M29.9999312,50.1595112 C18.9796311,50.1595112 9.29386757,46.0576099 4.28571429,40 C6.22889385,45.4495124 9.73514168,50.1508385 14.3325128,53.4711753 C18.9298427,56.7915407 24.3977689,58.5714286 29.9999312,58.5714286 C35.6022312,58.5714286 41.0700198,56.7915407 45.6674734,53.4711753 C50.2647895,50.1508385 53.7710236,45.4495124 55.7142857,40 C50.718387,46.0576099 41.0693321,50.1595112 29.9999312,50.1595112 Z" id="Path" fill="#333333"></path>
                <path d="M29.9999312,12.6976745 C41.0203689,12.6976745 50.7061462,16.7995758 55.7142857,22.8571429 C53.7710236,17.4076733 50.2647895,12.7063471 45.6674734,9.38601032 C41.0700198,6.06567349 35.6022312,4.28571429 29.9999312,4.28571429 C24.3977689,4.28571429 18.9298427,6.06567349 14.3325128,9.38601032 C9.73514168,12.7063471 6.22889385,17.4076733 4.28571429,22.8571429 C9.29386757,16.7868806 18.9306679,12.6976745 29.9999312,12.6976745 Z" id="Path" fill="#333333"></path>
                <path d="M14.2760101,60.4041534 C14.3378267,61.3947884 14.1032657,62.3813994 13.6022225,63.238277 C13.1011663,64.0951546 12.356316,64.783508 11.4625666,65.2156416 C10.5688173,65.6477753 9.56662584,65.8041239 8.58368962,65.6647647 C7.60074021,65.5253928 6.68154085,65.096638 5.943201,64.4331116 C5.20485983,63.7695851 4.68080649,62.9013199 4.43780552,61.9389566 C4.19480573,60.97658 4.24386073,59.963683 4.57872102,59.0292756 C4.91358142,58.0948815 5.51908665,57.2813051 6.31808564,56.6921985 C7.11709786,56.1030891 8.07342663,55.7651213 9.06524075,55.7213548 C9.71495928,55.6866097 10.3651645,55.7801877 10.9787138,55.9967421 C11.5922499,56.2132982 12.1571087,56.5485856 12.641001,56.9834532 C13.1248933,57.4183235 13.5183624,57.9442399 13.7988913,58.5311838 C14.0794334,59.1181137 14.2415638,59.7545655 14.2760101,60.4041534 Z" id="Path" fill="#9E9E9E"></path>
                <path d="M5.09938951,11.4274827 C4.39519122,11.443033 3.70095854,11.2917049 3.10400064,10.9925318 C2.50704927,10.6933457 2.03402048,10.2596603 1.74440619,9.74603179 C1.45479223,9.23239028 1.36152327,8.66172678 1.47632871,8.10580472 C1.59113416,7.54988266 1.90888766,7.03351458 2.38962961,6.62165692 C2.87037318,6.20979398 3.49264307,5.92081731 4.17818234,5.79106871 C4.86370531,5.66132024 5.58189783,5.69659313 6.24244975,5.89245111 C6.90298523,6.08831011 7.47637473,6.43600862 7.89049392,6.8918219 C8.3046294,7.34763781 8.54101489,7.8912188 8.56991677,8.45419852 C8.59743235,9.2154441 8.248424,9.95465582 7.59865326,10.5113215 C6.94888252,11.0680002 6.0507871,11.3972171 5.09938951,11.4274827 Z" id="Path" fill="#616262"></path>
            </g>
            <path d="M96.9990057,30.4285714 L69.9627232,2.1486183 C69.9313238,2.5955072 69.9077629,3.10610353 69.8927373,3.66906936 C69.8702632,4.51111175 69.8668714,5.27309774 69.8723545,6.47556989 C69.8745463,6.95623344 69.87469,6.99277408 69.87469,7.14285714 L69.87469,20 C69.87469,25.7757286 74.1886164,30.4285714 79.4707961,30.4285714 L96.9990057,30.4285714 Z" id="Path" stroke="#979797" stroke-width="2" fill="#D8D8D8" fill-rule="nonzero"></path>
        </g>
    </g>
</svg>