<?xml version="1.0" encoding="UTF-8"?>
<svg width="100px" height="115px" viewBox="0 0 100 115" version="1.1" xmlns="http://www.w3.org/2000/svg" xmlns:xlink="http://www.w3.org/1999/xlink">
    <!-- Generator: Sketch 52.6 (67491) - http://www.bohemiancoding.com/sketch -->
    <title>jupyter_icon</title>
    <desc>Created with Sketch.</desc>
    <g id="Page-1" stroke="none" stroke-width="1" fill="none" fill-rule="evenodd">
        <g id="jupyter" transform="translate(1.000000, 0.000000)" fill="#FFFFFF">
            <g id="Group" transform="translate(0.000000, 43.181818)">
                <path d="M4.19313636,16.8075682 C4.19313636,20.3485227 3.90986364,21.5018636 3.18143182,22.3516818 C2.370725,23.0817045 1.31823636,23.4854091 0.227272727,23.4847955 L0.51055,25.5081818 C2.20190909,25.5310455 3.84306818,24.9335909 5.12390909,23.8287727 C5.81306818,22.9883409 6.32590909,22.01775 6.63181818,20.9748409 C6.93775,19.9319318 7.03047727,18.8380909 6.9045,17.7585682 L6.9045,4.36363636 L4.19313636,4.36363636 L4.19313636,16.7266364 L4.19313636,16.8075682 Z" id="Path"></path>
                <path d="M24.4137273,15.2115682 C24.4137273,16.7291136 24.4137273,18.0847955 24.5351136,19.2583636 L22.1272727,19.2583636 L21.9654091,16.8505227 C21.4617727,17.7024773 20.7415227,18.4058636 19.8779091,18.8892045 C19.0142727,19.3725455 18.0380682,19.6186136 17.0485227,19.6023409 C14.7013864,19.6023409 11.9090909,18.3276136 11.9090909,13.1274545 L11.9090909,4.48753386 L14.6204545,4.48753386 L14.6204545,12.5811364 C14.6204545,15.3936818 15.4905227,17.2754318 17.9388409,17.2754318 C18.4425455,17.2808636 18.94225,17.1856364 19.4086818,16.9953636 C19.8751136,16.8050909 20.2988409,16.5236136 20.6550455,16.1674091 C21.0112273,15.8112273 21.2927273,15.3874773 21.483,14.9210682 C21.67325,14.4546364 21.7684773,13.9549091 21.7630682,13.4512045 L21.7630682,4.38636364 L24.4744091,4.38636364 L24.4744091,15.1306364 L24.4137273,15.2115682 Z" id="Path"></path>
                <path d="M29.5532223,9.30145455 C29.5532223,7.41968182 29.5532223,5.8819 29.4318182,4.48575227 L31.8599091,4.48575227 L31.9812955,7.015 C32.5222727,6.10121591 33.3010682,5.35135 34.2346591,4.84535 C35.1682727,4.33935114 36.2216818,4.096185 37.2826136,4.14177489 C40.8842727,4.14177489 43.5956364,7.15663636 43.5956364,11.6485909 C43.5956364,16.9499091 40.3379545,19.5803409 36.8172273,19.5803409 C35.9161136,19.6205455 35.0198636,19.4275 34.2152045,19.0198636 C33.4105455,18.6122045 32.7247273,18.0037727 32.2241136,17.2534318 L32.2241136,25.3470227 L29.5532223,25.3470227 L29.5532223,9.36215909 L29.5532223,9.30145455 Z M32.2241136,13.2470909 C32.2314545,13.6142273 32.2720909,13.9799318 32.3455227,14.3397273 C32.5750909,15.2381591 33.0977045,16.0343864 33.8306364,16.6024091 C34.5635909,17.1704545 35.4650227,17.4778636 36.3923182,17.476 C39.2453182,17.476 40.92475,15.1490909 40.92475,11.77 C40.92475,8.81584091 39.3465,6.28658182 36.4935,6.28658182 C35.3644545,6.37903864 34.3079091,6.88013636 33.5219318,7.69590909 C32.7359545,8.51168182 32.2745227,9.58613636 32.2241136,10.7178409 L32.2241136,13.2470909 Z" id="Shape" fill-rule="nonzero"></path>
                <path d="M48.4264545,4.47228614 L51.6841364,13.1931591 C52.0281136,14.1643864 52.3923182,15.3379545 52.6351364,16.2080227 C52.9184091,15.3177273 53.2219091,14.1846136 53.5861364,13.1324545 L56.5402955,4.47228614 L59.3932955,4.47228614 L55.3465,14.9939773 C53.3230909,20.0524773 52.0888182,22.6626818 50.2272727,24.2409318 C49.2896591,25.0973409 48.1465455,25.6967727 46.9089023,25.9810455 L46.2411795,23.7148409 C47.1065591,23.4305 47.9099545,22.9841818 48.6085682,22.3996364 C49.5956818,21.5951818 50.3790455,20.5691818 50.895,19.405 C51.0054318,19.2033864 51.0807045,18.9844091 51.1175682,18.7575 C51.0945682,18.5133182 51.0331136,18.2743182 50.9354773,18.0493182 L45.4318182,4.43181818 L48.3859773,4.43181818 L48.4264545,4.47228614 Z" id="Path"></path>
                <path d="M66.5912045,0.227272727 L66.5912045,4.47640909 L70.4761364,4.47640909 L70.4761364,6.49981818 L66.5912045,6.49981818 L66.5912045,14.4720227 C66.5912045,16.2930909 67.1172955,17.34525 68.6146136,17.34525 C69.1464091,17.3539545 69.6770227,17.2927273 70.1928636,17.1631591 L70.3142727,19.1865455 C69.5407727,19.4545227 68.7245682,19.5779773 67.9064091,19.5507727 C67.3645909,19.5846818 66.8218409,19.5009773 66.3154091,19.3053864 C65.8089773,19.1097955 65.3508636,18.8069545 64.9724773,18.4176591 C64.1482955,17.3152955 63.7723318,15.9416136 63.9203182,14.5732045 L63.9203182,6.47959091 L61.6136364,6.47959091 L61.6136364,4.45618182 L63.9607727,4.45618182 L63.9607727,0.854527273 L66.5912045,0.227272727 Z" id="Path"></path>
                <path d="M75.4708182,12.3386136 C75.4159091,13.0248409 75.5106364,13.7147955 75.7484773,14.3608182 C75.9863182,15.0068409 76.3615909,15.5935 76.8483864,16.0802727 C77.3351591,16.5670682 77.9218182,16.9423409 78.5678409,17.1801818 C79.2138636,17.4180227 79.9038182,17.51275 80.5900455,17.4578409 C81.9780227,17.4888864 83.3569545,17.2268864 84.6368409,16.6889318 L85.1022273,18.7123409 C83.5316591,19.3592955 81.8428409,19.6695 80.1448864,19.6228636 C79.1550227,19.6906364 78.1622273,19.5435 77.2345909,19.1915227 C76.3069318,18.8395682 75.4664091,18.2911136 74.7706159,17.5838182 C74.0748364,16.8765 73.5402795,16.0270455 73.2036159,15.09375 C72.8669509,14.1604318 72.736145,13.1653636 72.82017,12.17675 C72.82017,7.72527273 75.4708182,4.20454545 79.8009091,4.20454545 C84.6570682,4.20454545 85.8711136,8.45368182 85.8711136,11.1650455 C85.8970682,11.5828182 85.8970682,12.0017955 85.8711136,12.4195682 L75.4101364,12.4195682 L75.4708182,12.3386136 Z M83.4025682,10.3152273 C83.4806591,9.77425 83.4418864,9.22284091 83.2888409,8.69813636 C83.1358182,8.17343182 82.8720909,7.68761364 82.5154545,7.27343182 C82.1587955,6.85927273 81.7175227,6.52636364 81.2213409,6.29714545 C80.7251591,6.06793182 80.1855909,5.94774091 79.6390455,5.94467273 C78.5272955,6.02514545 77.4857045,6.51790909 76.7183864,7.32640909 C75.9510682,8.13488636 75.5133636,9.20079545 75.4910682,10.3152273 L83.4025682,10.3152273 Z" id="Shape" fill-rule="nonzero"></path>
                <path d="M89.9850405,9.07336364 C89.9850405,7.33325 89.9850405,5.83592273 89.8636364,4.46000909 L92.2917273,4.46000909 L92.2917273,7.35347727 L92.4131136,7.35347727 C92.6679773,6.46043182 93.1945455,5.66889545 93.9197273,5.08874773 C94.6449091,4.50859773 95.5327273,4.16862727 96.4599318,4.11603136 C96.7151364,4.08253502 96.9736136,4.08253502 97.2288182,4.11603136 L97.2288182,6.64529545 C96.9195909,6.60947727 96.6072727,6.60947727 96.2980455,6.64529545 C95.3795455,6.68086364 94.5053864,7.04959091 93.8388636,7.68261364 C93.1723409,8.31561364 92.7590455,9.16959091 92.6761591,10.0850682 C92.6005,10.4990909 92.5598864,10.91875 92.5547727,11.3395682 L92.5547727,19.2106136 L89.8838704,19.2106136 L89.8838704,9.09359091 L89.9850405,9.07336364 Z" id="Path"></path>
            </g>
            <path d="M88.7967955,7.01284091 C88.8798864,8.37218182 88.5564773,9.72547727 87.8677273,10.9003409 C87.1789773,12.0752273 86.1561136,13.0184773 84.9293864,13.6099773 C83.7026591,14.2014545 82.3276364,14.4143864 80.9794773,14.2216591 C79.6313182,14.0289091 78.3710455,13.4392273 77.3592,12.5277045 C76.3473568,11.6162045 75.62975,10.4241136 75.297797,9.10331818 C74.9658439,7.78252273 75.0345702,6.39279545 75.4952205,5.11120455 C75.9558705,3.82961364 76.7875932,2.71413864 77.8844318,1.90690227 C78.9812727,1.09966591 80.2935909,0.637201364 81.6541818,0.578421432 C82.54625,0.529333636 83.4392273,0.657078182 84.2817273,0.954309091 C85.12425,1.25153864 85.8997045,1.71239318 86.5635,2.31036591 C87.2272727,2.90834091 87.7663182,3.63163636 88.1495909,4.43865909 C88.5328636,5.24568182 88.7528182,6.12052273 88.7967955,7.01284091 Z" id="Path"></path>
            <path d="M48.7868182,86.2554091 C30.5763636,86.2554091 14.5711591,79.7198182 6.29545455,70.0681818 C9.50645455,78.7509318 15.3003409,86.2415909 22.89725,91.5319091 C30.4940909,96.8222727 39.5295455,99.6581818 48.7868182,99.6581818 C58.0443182,99.6581818 67.0795455,96.8222727 74.6765909,91.5319091 C82.2734091,86.2415909 88.0672727,78.7509318 91.2784091,70.0681818 C83.0229545,79.7198182 67.0784091,86.2554091 48.7868182,86.2554091 Z" id="Path"></path>
            <path d="M48.7868182,23.49375 C66.9975,23.49375 83.0027273,30.0293409 91.2784091,39.6809091 C88.0672727,30.9982273 82.2734091,23.5075682 74.6765909,18.21725 C67.0795455,12.9269318 58.0443182,10.0909091 48.7868182,10.0909091 C39.5295455,10.0909091 30.4940909,12.9269318 22.89725,18.21725 C15.3003409,23.5075682 9.50645455,30.9982273 6.29545455,39.6809091 C14.5711591,30.0091136 30.4954545,23.49375 48.7868182,23.49375 Z" id="Path"></path>
            <path d="M23.7176364,105.037636 C23.8244545,106.749818 23.4191364,108.455045 22.5533409,109.936045 C21.6875227,111.417045 20.4004318,112.606773 18.8560455,113.353659 C17.3116591,114.100545 15.5798864,114.370773 13.8813864,114.129909 C12.1828636,113.889023 10.5945,113.147977 9.31865909,112.001159 C8.04281591,110.854341 7.13725909,109.353659 6.71735682,107.690341 C6.29745659,106.027 6.38222295,104.276341 6.96085682,102.661341 C7.53949091,101.046364 8.58579545,99.6402045 9.96645455,98.6220114 C11.3471364,97.6038136 12.9996591,97.0196807 14.7135,96.9440361 C15.8362045,96.8839839 16.95975,97.0457211 18.0199545,97.4200068 C19.0801364,97.7942955 20.0562045,98.3737955 20.8923636,99.1254068 C21.7285227,99.8770227 22.4084318,100.786 22.8931818,101.800455 C23.3779545,102.814886 23.6581136,103.914909 23.7176364,105.037636 Z" id="Path"></path>
            <path d="M8.36502273,21.2941591 C7.38377273,21.32125 6.41640909,21.0576136 5.58459091,20.5364091 C4.75278182,20.0151818 4.09365,19.2596364 3.69009318,18.3648182 C3.28653682,17.4699773 3.15657318,16.4757955 3.31654636,15.5072955 C3.47651955,14.5387955 3.91928636,13.6392045 4.58916591,12.9216864 C5.25904773,12.2041591 6.12613636,11.7007182 7.08138636,11.4746766 C8.03661364,11.2486352 9.03736364,11.3100859 9.95779545,11.6513 C10.8782045,11.9925159 11.6771818,12.5982591 12.2542273,13.3923545 C12.8312955,14.1864545 13.1606818,15.1334545 13.2009545,16.11425 C13.2392955,17.4404545 12.7529773,18.7282727 11.8475682,19.6980682 C10.9421591,20.6678864 9.69072727,21.2414318 8.36502273,21.2941591 Z" id="Path"></path>
        </g>
    </g>
</svg>