<?xml version="1.0" encoding="UTF-8"?>
<svg width="506px" height="427px" viewBox="0 0 506 427" version="1.1" xmlns="http://www.w3.org/2000/svg" xmlns:xlink="http://www.w3.org/1999/xlink">
    <!-- Generator: Sketch 52.6 (67491) - http://www.bohemiancoding.com/sketch -->
    <title>warning</title>
    <desc>Created with Sketch.</desc>
    <g id="Page-1" stroke="none" stroke-width="1" fill="none" fill-rule="evenodd">
        <g id="warning">
            <g id="Document" transform="translate(252.831601, 213.777676) scale(-1, 1) rotate(-180.000000) translate(-252.831601, -213.777676) translate(0.331601, 0.277676)">
                <g id="Spread">
                    <g id="MouseOff">
                        <path d="M494.561277,70.3987863 L295.011432,397.872858 C271.638828,436.184006 233.70472,436.184006 210.345975,397.872858 L10.7822714,70.4137108 C-12.5764738,32.0993648 4.89967564,0.978619671 49.8005762,0.978619671 L455.542972,0.94983674 C500.438542,0.949836739 517.905097,32.0780441 494.561277,70.3987863 Z" id="path96" fill="#000000"></path>
                        <path d="M221.168757,295.980215 L221.168757,162.816515 C221.168757,151.734021 230.328464,142.777199 241.395377,142.777199 L264.231746,142.777199 C275.29866,142.777199 284.168394,151.734021 284.168394,162.816515 L284.168394,295.980215 C284.168394,307.055247 275.306122,315.777541 264.231746,315.777541 L241.395377,315.777541 C230.327398,315.777541 221.168757,307.055247 221.168757,295.980215 Z" id="path98" fill="#FFFFFF"></path>
                        <path d="M252.801302,111.244964 C270.187901,111.244964 284.319777,97.1274693 284.319777,79.7265882 C284.319777,62.324641 270.187901,48.2135423 252.801302,48.2135423 C235.413637,48.2135423 221.296686,62.323575 221.296686,79.7265882 C221.296686,97.1274693 235.421099,111.244964 252.801302,111.244964 Z" id="path100" fill="#FFFFFF"></path>
                    </g>
                </g>
            </g>
        </g>
    </g>
</svg>